G04 Layer_Color=16711935*
%FSAX24Y24*%
%MOIN*%
G70*
G01*
G75*
%ADD16C,0.0787*%
%ADD17R,0.1024X0.1181*%
%ADD19C,0.0860*%
%ADD29C,0.0740*%
%ADD32C,0.0780*%
%ADD53C,0.0552*%
%ADD54C,0.0940*%
%ADD55R,0.0780X0.0780*%
%ADD56C,0.0830*%
%ADD57R,0.0780X0.0780*%
%ADD58C,0.0671*%
%ADD59R,0.0671X0.0671*%
%ADD60C,0.0880*%
%ADD61R,0.1280X0.0780*%
%ADD62O,0.1280X0.0780*%
%ADD63C,0.0820*%
%ADD64R,0.0671X0.0671*%
%ADD65C,0.0710*%
%ADD66C,0.0631*%
%ADD67C,0.0907*%
%ADD68C,0.0930*%
%ADD69C,0.0710*%
%ADD70C,0.0170*%
%ADD71C,0.0230*%
G36*
X210011Y112316D02*
X210087Y112285D01*
X210156Y112241D01*
X210214Y112183D01*
X210260Y112116D01*
X210293Y112041D01*
X210310Y111961D01*
X210310Y111920D01*
Y111879D01*
X210294Y111797D01*
X210262Y111721D01*
X210216Y111652D01*
X210158Y111594D01*
X210089Y111548D01*
X210013Y111516D01*
X209931Y111500D01*
X209849D01*
X209767Y111516D01*
X209691Y111548D01*
X209622Y111594D01*
X209564Y111652D01*
X209518Y111721D01*
X209486Y111797D01*
X209470Y111879D01*
Y111920D01*
X209470Y111961D01*
X209487Y112041D01*
X209520Y112116D01*
X209566Y112183D01*
X209624Y112241D01*
X209693Y112285D01*
X209769Y112316D01*
X209849Y112330D01*
X209890Y112330D01*
X209931Y112330D01*
X210011Y112316D01*
D02*
G37*
G36*
X208731D02*
X208807Y112285D01*
X208876Y112241D01*
X208934Y112183D01*
X208980Y112116D01*
X209013Y112041D01*
X209030Y111961D01*
X209030Y111920D01*
Y111879D01*
X209014Y111797D01*
X208982Y111721D01*
X208936Y111652D01*
X208878Y111594D01*
X208809Y111548D01*
X208733Y111516D01*
X208651Y111500D01*
X208569D01*
X208487Y111516D01*
X208411Y111548D01*
X208342Y111594D01*
X208284Y111652D01*
X208238Y111721D01*
X208206Y111797D01*
X208190Y111879D01*
Y111920D01*
X208190Y111961D01*
X208207Y112041D01*
X208240Y112116D01*
X208286Y112183D01*
X208344Y112241D01*
X208413Y112285D01*
X208489Y112316D01*
X208569Y112330D01*
X208610Y112330D01*
X208651Y112330D01*
X208731Y112316D01*
D02*
G37*
G36*
X214931D02*
X215007Y112285D01*
X215076Y112241D01*
X215134Y112183D01*
X215180Y112116D01*
X215213Y112041D01*
X215230Y111961D01*
X215230Y111920D01*
Y111879D01*
X215214Y111797D01*
X215182Y111721D01*
X215136Y111652D01*
X215078Y111594D01*
X215009Y111548D01*
X214933Y111516D01*
X214851Y111500D01*
X214769D01*
X214687Y111516D01*
X214611Y111548D01*
X214542Y111594D01*
X214484Y111652D01*
X214438Y111721D01*
X214406Y111797D01*
X214390Y111879D01*
Y111920D01*
X214390Y111961D01*
X214407Y112041D01*
X214440Y112116D01*
X214486Y112183D01*
X214544Y112241D01*
X214613Y112285D01*
X214689Y112316D01*
X214769Y112330D01*
X214810Y112330D01*
X214851Y112330D01*
X214931Y112316D01*
D02*
G37*
G36*
X221131D02*
X221207Y112285D01*
X221276Y112241D01*
X221334Y112183D01*
X221380Y112116D01*
X221413Y112041D01*
X221430Y111961D01*
X221430Y111920D01*
Y111879D01*
X221414Y111797D01*
X221382Y111721D01*
X221336Y111652D01*
X221278Y111594D01*
X221209Y111548D01*
X221133Y111516D01*
X221051Y111500D01*
X220969D01*
X220887Y111516D01*
X220811Y111548D01*
X220742Y111594D01*
X220684Y111652D01*
X220638Y111721D01*
X220606Y111797D01*
X220590Y111879D01*
Y111920D01*
X220590Y111961D01*
X220607Y112041D01*
X220640Y112116D01*
X220686Y112183D01*
X220744Y112241D01*
X220813Y112285D01*
X220889Y112316D01*
X220969Y112330D01*
X221010Y112330D01*
X221051Y112330D01*
X221131Y112316D01*
D02*
G37*
G36*
X216211D02*
X216287Y112285D01*
X216356Y112241D01*
X216414Y112183D01*
X216460Y112116D01*
X216493Y112041D01*
X216510Y111961D01*
X216510Y111920D01*
Y111879D01*
X216494Y111797D01*
X216462Y111721D01*
X216416Y111652D01*
X216358Y111594D01*
X216289Y111548D01*
X216213Y111516D01*
X216131Y111500D01*
X216049D01*
X215967Y111516D01*
X215891Y111548D01*
X215822Y111594D01*
X215764Y111652D01*
X215718Y111721D01*
X215686Y111797D01*
X215670Y111879D01*
Y111920D01*
X215670Y111961D01*
X215687Y112041D01*
X215720Y112116D01*
X215766Y112183D01*
X215824Y112241D01*
X215893Y112285D01*
X215969Y112316D01*
X216049Y112330D01*
X216090Y112330D01*
X216131Y112330D01*
X216211Y112316D01*
D02*
G37*
G36*
X179610Y112260D02*
X179678Y112233D01*
X179740Y112193D01*
X179792Y112142D01*
X179833Y112082D01*
X179862Y112015D01*
X179878Y111944D01*
X179878Y111907D01*
X179878Y111870D01*
X179865Y111796D01*
X179837Y111727D01*
X179796Y111664D01*
X179744Y111611D01*
X179682Y111568D01*
X179614Y111539D01*
X179540Y111523D01*
X179503Y111523D01*
X179466Y111524D01*
X179393Y111539D01*
X179324Y111569D01*
X179262Y111611D01*
X179210Y111665D01*
X179170Y111728D01*
X179142Y111797D01*
X179128Y111871D01*
X179129Y111908D01*
X179129Y111944D01*
X179144Y112015D01*
X179173Y112082D01*
X179214Y112142D01*
X179266Y112193D01*
X179327Y112233D01*
X179394Y112260D01*
X179466Y112273D01*
X179502Y112273D01*
D01*
X179502D01*
X179502D01*
X179539Y112273D01*
X179610Y112260D01*
D02*
G37*
G36*
X201108Y112260D02*
X201176Y112233D01*
X201238Y112193D01*
X201290Y112142D01*
X201331Y112082D01*
X201360Y112015D01*
X201375Y111944D01*
X201376Y111907D01*
Y111907D01*
X201376Y111870D01*
X201363Y111796D01*
X201335Y111727D01*
X201294Y111664D01*
X201242Y111611D01*
X201180Y111568D01*
X201112Y111539D01*
X201038Y111523D01*
X201001Y111523D01*
X200964Y111524D01*
X200891Y111539D01*
X200822Y111569D01*
X200760Y111611D01*
X200708Y111665D01*
X200668Y111728D01*
X200640Y111797D01*
X200626Y111871D01*
X200627Y111908D01*
X200627Y111944D01*
X200642Y112015D01*
X200671Y112082D01*
X200712Y112142D01*
X200764Y112193D01*
X200825Y112233D01*
X200892Y112260D01*
X200964Y112273D01*
X201000Y112273D01*
Y112273D01*
X201037Y112273D01*
X201108Y112260D01*
D02*
G37*
G36*
X190910Y112260D02*
X190978Y112233D01*
X191040Y112193D01*
X191092Y112142D01*
X191133Y112082D01*
X191162Y112015D01*
X191178Y111944D01*
X191178Y111907D01*
X191178Y111870D01*
X191165Y111796D01*
X191137Y111727D01*
X191096Y111664D01*
X191044Y111611D01*
X190982Y111568D01*
X190914Y111539D01*
X190840Y111523D01*
X190803Y111523D01*
X190766Y111524D01*
X190693Y111539D01*
X190624Y111569D01*
X190562Y111611D01*
X190510Y111665D01*
X190470Y111728D01*
X190442Y111797D01*
X190428Y111871D01*
X190429Y111908D01*
X190429Y111944D01*
X190444Y112015D01*
X190473Y112082D01*
X190514Y112142D01*
X190566Y112193D01*
X190627Y112233D01*
X190694Y112260D01*
X190766Y112273D01*
X190802Y112273D01*
D01*
X190802D01*
X190802D01*
X190839Y112273D01*
X190910Y112260D01*
D02*
G37*
G36*
X203811Y112316D02*
X203887Y112285D01*
X203956Y112241D01*
X204014Y112183D01*
X204060Y112116D01*
X204093Y112041D01*
X204110Y111961D01*
X204110Y111920D01*
Y111879D01*
X204094Y111797D01*
X204062Y111721D01*
X204016Y111652D01*
X203958Y111594D01*
X203889Y111548D01*
X203813Y111516D01*
X203731Y111500D01*
X203649D01*
X203567Y111516D01*
X203491Y111548D01*
X203422Y111594D01*
X203364Y111652D01*
X203318Y111721D01*
X203286Y111797D01*
X203270Y111879D01*
Y111920D01*
X203270Y111961D01*
X203287Y112041D01*
X203320Y112116D01*
X203366Y112183D01*
X203424Y112241D01*
X203493Y112285D01*
X203569Y112316D01*
X203649Y112330D01*
X203690Y112330D01*
X203731Y112330D01*
X203811Y112316D01*
D02*
G37*
G36*
X202210Y112260D02*
X202278Y112233D01*
X202340Y112193D01*
X202392Y112142D01*
X202433Y112082D01*
X202462Y112015D01*
X202478Y111944D01*
X202478Y111907D01*
X202478Y111870D01*
X202465Y111796D01*
X202437Y111727D01*
X202396Y111664D01*
X202344Y111611D01*
X202282Y111568D01*
X202214Y111539D01*
X202140Y111523D01*
X202103Y111523D01*
X202066Y111524D01*
X201993Y111539D01*
X201924Y111569D01*
X201862Y111611D01*
X201810Y111665D01*
X201770Y111728D01*
X201742Y111797D01*
X201728Y111871D01*
X201729Y111908D01*
X201729Y111944D01*
X201744Y112015D01*
X201773Y112082D01*
X201814Y112142D01*
X201866Y112193D01*
X201927Y112233D01*
X201994Y112260D01*
X202066Y112273D01*
X202102Y112273D01*
D01*
X202102D01*
X202102D01*
X202139Y112273D01*
X202210Y112260D01*
D02*
G37*
G36*
X203811Y114286D02*
X203887Y114255D01*
X203956Y114211D01*
X204014Y114153D01*
X204060Y114086D01*
X204093Y114011D01*
X204110Y113931D01*
X204110Y113890D01*
Y113849D01*
X204094Y113767D01*
X204062Y113691D01*
X204016Y113622D01*
X203958Y113564D01*
X203889Y113518D01*
X203813Y113486D01*
X203731Y113470D01*
X203649D01*
X203567Y113486D01*
X203491Y113518D01*
X203422Y113564D01*
X203364Y113622D01*
X203318Y113691D01*
X203286Y113767D01*
X203270Y113849D01*
Y113890D01*
X203270Y113931D01*
X203287Y114011D01*
X203320Y114086D01*
X203366Y114153D01*
X203424Y114211D01*
X203493Y114255D01*
X203569Y114286D01*
X203649Y114300D01*
X203690Y114300D01*
X203731Y114300D01*
X203811Y114286D01*
D02*
G37*
G36*
X143210Y114060D02*
X143278Y114033D01*
X143340Y113993D01*
X143392Y113942D01*
X143433Y113882D01*
X143462Y113815D01*
X143478Y113744D01*
X143478Y113707D01*
X143478Y113670D01*
X143465Y113596D01*
X143437Y113527D01*
X143396Y113464D01*
X143344Y113411D01*
X143282Y113368D01*
X143214Y113339D01*
X143140Y113323D01*
X143103Y113323D01*
X143066Y113324D01*
X142993Y113339D01*
X142924Y113369D01*
X142862Y113411D01*
X142810Y113465D01*
X142770Y113528D01*
X142742Y113597D01*
X142728Y113671D01*
X142729Y113708D01*
X142729Y113744D01*
X142744Y113815D01*
X142773Y113882D01*
X142814Y113942D01*
X142866Y113993D01*
X142927Y114033D01*
X142994Y114060D01*
X143066Y114073D01*
X143102Y114073D01*
D01*
X143102D01*
X143102D01*
X143139Y114073D01*
X143210Y114060D01*
D02*
G37*
G36*
X208731Y114286D02*
X208807Y114255D01*
X208876Y114211D01*
X208934Y114153D01*
X208980Y114086D01*
X209013Y114011D01*
X209030Y113931D01*
X209030Y113890D01*
Y113849D01*
X209014Y113767D01*
X208982Y113691D01*
X208936Y113622D01*
X208878Y113564D01*
X208809Y113518D01*
X208733Y113486D01*
X208651Y113470D01*
X208569D01*
X208487Y113486D01*
X208411Y113518D01*
X208342Y113564D01*
X208284Y113622D01*
X208238Y113691D01*
X208206Y113767D01*
X208190Y113849D01*
Y113890D01*
X208190Y113931D01*
X208207Y114011D01*
X208240Y114086D01*
X208286Y114153D01*
X208344Y114211D01*
X208413Y114255D01*
X208489Y114286D01*
X208569Y114300D01*
X208610Y114300D01*
X208651Y114300D01*
X208731Y114286D01*
D02*
G37*
G36*
X214931D02*
X215007Y114255D01*
X215076Y114211D01*
X215134Y114153D01*
X215180Y114086D01*
X215213Y114011D01*
X215230Y113931D01*
X215230Y113890D01*
Y113849D01*
X215214Y113767D01*
X215182Y113691D01*
X215136Y113622D01*
X215078Y113564D01*
X215009Y113518D01*
X214933Y113486D01*
X214851Y113470D01*
X214769D01*
X214687Y113486D01*
X214611Y113518D01*
X214542Y113564D01*
X214484Y113622D01*
X214438Y113691D01*
X214406Y113767D01*
X214390Y113849D01*
Y113890D01*
X214390Y113931D01*
X214407Y114011D01*
X214440Y114086D01*
X214486Y114153D01*
X214544Y114211D01*
X214613Y114255D01*
X214689Y114286D01*
X214769Y114300D01*
X214810Y114300D01*
X214851Y114300D01*
X214931Y114286D01*
D02*
G37*
G36*
X210011D02*
X210087Y114255D01*
X210156Y114211D01*
X210214Y114153D01*
X210260Y114086D01*
X210293Y114011D01*
X210310Y113931D01*
X210310Y113890D01*
Y113849D01*
X210294Y113767D01*
X210262Y113691D01*
X210216Y113622D01*
X210158Y113564D01*
X210089Y113518D01*
X210013Y113486D01*
X209931Y113470D01*
X209849D01*
X209767Y113486D01*
X209691Y113518D01*
X209622Y113564D01*
X209564Y113622D01*
X209518Y113691D01*
X209486Y113767D01*
X209470Y113849D01*
Y113890D01*
X209470Y113931D01*
X209487Y114011D01*
X209520Y114086D01*
X209566Y114153D01*
X209624Y114211D01*
X209693Y114255D01*
X209769Y114286D01*
X209849Y114300D01*
X209890Y114300D01*
X209931Y114300D01*
X210011Y114286D01*
D02*
G37*
G36*
X227331Y112316D02*
X227407Y112285D01*
X227476Y112241D01*
X227534Y112183D01*
X227580Y112116D01*
X227613Y112041D01*
X227630Y111961D01*
X227630Y111920D01*
Y111879D01*
X227614Y111797D01*
X227582Y111721D01*
X227536Y111652D01*
X227478Y111594D01*
X227409Y111548D01*
X227333Y111516D01*
X227251Y111500D01*
X227169D01*
X227087Y111516D01*
X227011Y111548D01*
X226942Y111594D01*
X226884Y111652D01*
X226838Y111721D01*
X226806Y111797D01*
X226790Y111879D01*
Y111920D01*
X226790Y111961D01*
X226807Y112041D01*
X226840Y112116D01*
X226886Y112183D01*
X226944Y112241D01*
X227013Y112285D01*
X227089Y112316D01*
X227169Y112330D01*
X227210Y112330D01*
X227251Y112330D01*
X227331Y112316D01*
D02*
G37*
G36*
X222411D02*
X222487Y112285D01*
X222556Y112241D01*
X222614Y112183D01*
X222660Y112116D01*
X222693Y112041D01*
X222710Y111961D01*
X222710Y111920D01*
Y111879D01*
X222694Y111797D01*
X222662Y111721D01*
X222616Y111652D01*
X222558Y111594D01*
X222489Y111548D01*
X222413Y111516D01*
X222331Y111500D01*
X222249D01*
X222167Y111516D01*
X222091Y111548D01*
X222022Y111594D01*
X221964Y111652D01*
X221918Y111721D01*
X221886Y111797D01*
X221870Y111879D01*
Y111920D01*
X221870Y111961D01*
X221887Y112041D01*
X221920Y112116D01*
X221966Y112183D01*
X222024Y112241D01*
X222093Y112285D01*
X222169Y112316D01*
X222249Y112330D01*
X222290Y112330D01*
X222331Y112330D01*
X222411Y112316D01*
D02*
G37*
G36*
X228611D02*
X228687Y112285D01*
X228756Y112241D01*
X228814Y112183D01*
X228860Y112116D01*
X228893Y112041D01*
X228910Y111961D01*
X228910Y111920D01*
Y111879D01*
X228894Y111797D01*
X228862Y111721D01*
X228816Y111652D01*
X228758Y111594D01*
X228689Y111548D01*
X228613Y111516D01*
X228531Y111500D01*
X228449D01*
X228367Y111516D01*
X228291Y111548D01*
X228222Y111594D01*
X228164Y111652D01*
X228118Y111721D01*
X228086Y111797D01*
X228070Y111879D01*
Y111920D01*
X228070Y111961D01*
X228087Y112041D01*
X228120Y112116D01*
X228166Y112183D01*
X228224Y112241D01*
X228293Y112285D01*
X228369Y112316D01*
X228449Y112330D01*
X228490Y112330D01*
X228531Y112330D01*
X228611Y112316D01*
D02*
G37*
G36*
X142108Y114060D02*
X142176Y114033D01*
X142238Y113993D01*
X142290Y113942D01*
X142331Y113882D01*
X142360Y113815D01*
X142375Y113744D01*
X142376Y113707D01*
Y113707D01*
X142376Y113670D01*
X142363Y113596D01*
X142335Y113527D01*
X142294Y113464D01*
X142242Y113411D01*
X142180Y113368D01*
X142112Y113339D01*
X142038Y113323D01*
X142001Y113323D01*
X141964Y113324D01*
X141891Y113339D01*
X141822Y113369D01*
X141760Y113411D01*
X141708Y113465D01*
X141668Y113528D01*
X141640Y113597D01*
X141626Y113671D01*
X141627Y113708D01*
X141627Y113744D01*
X141642Y113815D01*
X141671Y113882D01*
X141712Y113942D01*
X141764Y113993D01*
X141825Y114033D01*
X141892Y114060D01*
X141964Y114073D01*
X142000Y114073D01*
Y114073D01*
X142037Y114073D01*
X142108Y114060D01*
D02*
G37*
G36*
X233531Y112316D02*
X233607Y112285D01*
X233676Y112241D01*
X233734Y112183D01*
X233780Y112116D01*
X233813Y112041D01*
X233830Y111961D01*
X233830Y111920D01*
Y111879D01*
X233814Y111797D01*
X233782Y111721D01*
X233736Y111652D01*
X233678Y111594D01*
X233609Y111548D01*
X233533Y111516D01*
X233451Y111500D01*
X233369D01*
X233287Y111516D01*
X233211Y111548D01*
X233142Y111594D01*
X233084Y111652D01*
X233038Y111721D01*
X233006Y111797D01*
X232990Y111879D01*
Y111920D01*
X232990Y111961D01*
X233007Y112041D01*
X233040Y112116D01*
X233086Y112183D01*
X233144Y112241D01*
X233213Y112285D01*
X233289Y112316D01*
X233369Y112330D01*
X233410Y112330D01*
X233451Y112330D01*
X233531Y112316D01*
D02*
G37*
G36*
X189808Y112260D02*
X189876Y112233D01*
X189938Y112193D01*
X189990Y112142D01*
X190031Y112082D01*
X190060Y112015D01*
X190075Y111944D01*
X190076Y111907D01*
Y111907D01*
X190076Y111870D01*
X190063Y111796D01*
X190035Y111727D01*
X189994Y111664D01*
X189942Y111611D01*
X189880Y111568D01*
X189812Y111539D01*
X189738Y111523D01*
X189701Y111523D01*
X189664Y111524D01*
X189591Y111539D01*
X189522Y111569D01*
X189460Y111611D01*
X189408Y111665D01*
X189368Y111728D01*
X189340Y111797D01*
X189326Y111871D01*
X189327Y111908D01*
X189327Y111944D01*
X189342Y112015D01*
X189371Y112082D01*
X189412Y112142D01*
X189464Y112193D01*
X189525Y112233D01*
X189592Y112260D01*
X189664Y112273D01*
X189700Y112273D01*
Y112273D01*
X189737Y112273D01*
X189808Y112260D01*
D02*
G37*
G36*
X149258Y091223D02*
X149294Y091223D01*
X149365Y091208D01*
X149432Y091179D01*
X149492Y091138D01*
X149543Y091086D01*
X149583Y091025D01*
X149610Y090958D01*
X149623Y090886D01*
X149623Y090850D01*
X149623D01*
X149623Y090813D01*
X149610Y090742D01*
X149583Y090674D01*
X149543Y090612D01*
X149492Y090560D01*
X149432Y090519D01*
X149365Y090490D01*
X149294Y090475D01*
X149257Y090474D01*
X149257D01*
X149220Y090474D01*
X149146Y090487D01*
X149077Y090515D01*
X149014Y090556D01*
X148961Y090608D01*
X148918Y090670D01*
X148889Y090738D01*
X148873Y090812D01*
X148873Y090849D01*
X148874Y090886D01*
X148889Y090959D01*
X148919Y091028D01*
X148961Y091090D01*
X149015Y091142D01*
X149078Y091182D01*
X149147Y091210D01*
X149221Y091224D01*
X149258Y091223D01*
D02*
G37*
G36*
X146958D02*
X146994Y091223D01*
X147065Y091208D01*
X147132Y091179D01*
X147192Y091138D01*
X147243Y091086D01*
X147283Y091025D01*
X147310Y090958D01*
X147323Y090886D01*
X147323Y090850D01*
X147323D01*
X147323Y090813D01*
X147310Y090742D01*
X147283Y090674D01*
X147243Y090612D01*
X147192Y090560D01*
X147132Y090519D01*
X147065Y090490D01*
X146994Y090475D01*
X146957Y090474D01*
X146957D01*
X146920Y090474D01*
X146846Y090487D01*
X146777Y090515D01*
X146714Y090556D01*
X146661Y090608D01*
X146618Y090670D01*
X146589Y090738D01*
X146573Y090812D01*
X146573Y090849D01*
X146574Y090886D01*
X146589Y090959D01*
X146619Y091028D01*
X146661Y091090D01*
X146715Y091142D01*
X146778Y091182D01*
X146847Y091210D01*
X146921Y091224D01*
X146958Y091223D01*
D02*
G37*
G36*
X155458D02*
X155494Y091223D01*
X155565Y091208D01*
X155632Y091179D01*
X155692Y091138D01*
X155743Y091086D01*
X155783Y091025D01*
X155810Y090958D01*
X155823Y090886D01*
X155823Y090850D01*
X155823D01*
X155823Y090813D01*
X155810Y090742D01*
X155783Y090674D01*
X155743Y090612D01*
X155692Y090560D01*
X155632Y090519D01*
X155565Y090490D01*
X155494Y090475D01*
X155457Y090474D01*
X155457D01*
X155420Y090474D01*
X155346Y090487D01*
X155277Y090515D01*
X155214Y090556D01*
X155161Y090608D01*
X155118Y090670D01*
X155089Y090738D01*
X155073Y090812D01*
X155073Y090849D01*
X155074Y090886D01*
X155089Y090959D01*
X155119Y091028D01*
X155161Y091090D01*
X155215Y091142D01*
X155278Y091182D01*
X155347Y091210D01*
X155421Y091224D01*
X155458Y091223D01*
D02*
G37*
G36*
X136510Y102360D02*
X136578Y102333D01*
X136640Y102293D01*
X136692Y102242D01*
X136733Y102182D01*
X136762Y102115D01*
X136778Y102044D01*
X136778Y102007D01*
X136778Y101970D01*
X136765Y101896D01*
X136737Y101827D01*
X136696Y101764D01*
X136644Y101711D01*
X136582Y101668D01*
X136514Y101639D01*
X136440Y101623D01*
X136403Y101623D01*
X136366Y101624D01*
X136293Y101639D01*
X136224Y101669D01*
X136162Y101711D01*
X136110Y101765D01*
X136070Y101828D01*
X136042Y101897D01*
X136028Y101971D01*
X136029Y102008D01*
X136029Y102044D01*
X136044Y102115D01*
X136073Y102182D01*
X136114Y102242D01*
X136166Y102293D01*
X136227Y102333D01*
X136294Y102360D01*
X136366Y102373D01*
X136402Y102373D01*
D01*
X136402D01*
X136402D01*
X136439Y102373D01*
X136510Y102360D01*
D02*
G37*
G36*
X135408Y102360D02*
X135476Y102333D01*
X135538Y102293D01*
X135590Y102242D01*
X135631Y102182D01*
X135660Y102115D01*
X135675Y102044D01*
X135676Y102007D01*
Y102007D01*
X135676Y101970D01*
X135663Y101896D01*
X135635Y101827D01*
X135594Y101764D01*
X135542Y101711D01*
X135480Y101668D01*
X135412Y101639D01*
X135338Y101623D01*
X135301Y101623D01*
X135264Y101624D01*
X135191Y101639D01*
X135122Y101669D01*
X135060Y101711D01*
X135008Y101765D01*
X134968Y101828D01*
X134940Y101897D01*
X134926Y101971D01*
X134927Y102008D01*
X134927Y102044D01*
X134942Y102115D01*
X134971Y102182D01*
X135012Y102242D01*
X135064Y102293D01*
X135125Y102333D01*
X135192Y102360D01*
X135264Y102373D01*
X135300Y102373D01*
Y102373D01*
X135337Y102373D01*
X135408Y102360D01*
D02*
G37*
G36*
X146958Y090121D02*
X146994Y090121D01*
X147065Y090106D01*
X147132Y090077D01*
X147192Y090036D01*
X147243Y089984D01*
X147283Y089923D01*
X147310Y089856D01*
X147323Y089784D01*
X147323Y089748D01*
X147323Y089711D01*
X147310Y089640D01*
X147283Y089572D01*
X147243Y089510D01*
X147192Y089458D01*
X147132Y089417D01*
X147065Y089388D01*
X146994Y089372D01*
X146957Y089372D01*
X146920Y089372D01*
X146846Y089385D01*
X146777Y089413D01*
X146714Y089454D01*
X146661Y089506D01*
X146618Y089568D01*
X146589Y089636D01*
X146573Y089710D01*
X146573Y089747D01*
X146574Y089784D01*
X146589Y089857D01*
X146619Y089926D01*
X146661Y089988D01*
X146715Y090040D01*
X146778Y090080D01*
X146847Y090108D01*
X146921Y090122D01*
X146958Y090121D01*
D02*
G37*
G36*
X140758D02*
X140794Y090121D01*
X140865Y090106D01*
X140932Y090077D01*
X140992Y090036D01*
X141043Y089984D01*
X141083Y089923D01*
X141110Y089856D01*
X141123Y089784D01*
X141123Y089748D01*
X141123Y089711D01*
X141110Y089640D01*
X141083Y089572D01*
X141043Y089510D01*
X140992Y089458D01*
X140932Y089417D01*
X140865Y089388D01*
X140794Y089372D01*
X140757Y089372D01*
X140720Y089372D01*
X140646Y089385D01*
X140577Y089413D01*
X140514Y089454D01*
X140461Y089506D01*
X140418Y089568D01*
X140389Y089636D01*
X140373Y089710D01*
X140373Y089747D01*
X140374Y089784D01*
X140389Y089857D01*
X140419Y089926D01*
X140461Y089988D01*
X140515Y090040D01*
X140578Y090080D01*
X140647Y090108D01*
X140721Y090122D01*
X140758Y090121D01*
D02*
G37*
G36*
X149258D02*
X149294Y090121D01*
X149365Y090106D01*
X149432Y090077D01*
X149492Y090036D01*
X149543Y089984D01*
X149583Y089923D01*
X149610Y089856D01*
X149623Y089784D01*
X149623Y089748D01*
X149623Y089711D01*
X149610Y089640D01*
X149583Y089572D01*
X149543Y089510D01*
X149492Y089458D01*
X149432Y089417D01*
X149365Y089388D01*
X149294Y089372D01*
X149257Y089372D01*
X149220Y089372D01*
X149146Y089385D01*
X149077Y089413D01*
X149014Y089454D01*
X148961Y089506D01*
X148918Y089568D01*
X148889Y089636D01*
X148873Y089710D01*
X148873Y089747D01*
X148874Y089784D01*
X148889Y089857D01*
X148919Y089926D01*
X148961Y089988D01*
X149015Y090040D01*
X149078Y090080D01*
X149147Y090108D01*
X149221Y090122D01*
X149258Y090121D01*
D02*
G37*
G36*
X140758Y091223D02*
X140794Y091223D01*
X140865Y091208D01*
X140932Y091179D01*
X140992Y091138D01*
X141043Y091086D01*
X141083Y091025D01*
X141110Y090958D01*
X141123Y090886D01*
X141123Y090850D01*
X141123D01*
X141123Y090813D01*
X141110Y090742D01*
X141083Y090674D01*
X141043Y090612D01*
X140992Y090560D01*
X140932Y090519D01*
X140865Y090490D01*
X140794Y090475D01*
X140757Y090474D01*
X140757D01*
X140720Y090474D01*
X140646Y090487D01*
X140577Y090515D01*
X140514Y090556D01*
X140461Y090608D01*
X140418Y090670D01*
X140389Y090738D01*
X140373Y090812D01*
X140373Y090849D01*
X140374Y090886D01*
X140389Y090959D01*
X140419Y091028D01*
X140461Y091090D01*
X140515Y091142D01*
X140578Y091182D01*
X140647Y091210D01*
X140721Y091224D01*
X140758Y091223D01*
D02*
G37*
G36*
X155458Y090121D02*
X155494Y090121D01*
X155565Y090106D01*
X155632Y090077D01*
X155692Y090036D01*
X155743Y089984D01*
X155783Y089923D01*
X155810Y089856D01*
X155823Y089784D01*
X155823Y089748D01*
X155823Y089711D01*
X155810Y089640D01*
X155783Y089572D01*
X155743Y089510D01*
X155692Y089458D01*
X155632Y089417D01*
X155565Y089388D01*
X155494Y089372D01*
X155457Y089372D01*
X155420Y089372D01*
X155346Y089385D01*
X155277Y089413D01*
X155214Y089454D01*
X155161Y089506D01*
X155118Y089568D01*
X155089Y089636D01*
X155073Y089710D01*
X155073Y089747D01*
X155074Y089784D01*
X155089Y089857D01*
X155119Y089926D01*
X155161Y089988D01*
X155215Y090040D01*
X155278Y090080D01*
X155347Y090108D01*
X155421Y090122D01*
X155458Y090121D01*
D02*
G37*
G36*
X230983Y110570D02*
X231048Y110556D01*
X231108Y110529D01*
X231162Y110492D01*
X231208Y110445D01*
X231244Y110389D01*
X231269Y110328D01*
X231280Y110263D01*
X231280Y110230D01*
X231280Y110198D01*
X231266Y110135D01*
X231241Y110077D01*
X231204Y110024D01*
X231158Y109979D01*
X231105Y109945D01*
X231045Y109921D01*
X230982Y109910D01*
X230950Y109910D01*
X230950D01*
X230918Y109910D01*
X230855Y109921D01*
X230795Y109945D01*
X230742Y109979D01*
X230696Y110024D01*
X230659Y110077D01*
X230634Y110135D01*
X230620Y110198D01*
X230620Y110230D01*
X230620Y110263D01*
X230631Y110328D01*
X230656Y110389D01*
X230692Y110445D01*
X230738Y110492D01*
X230792Y110529D01*
X230852Y110556D01*
X230917Y110570D01*
X230950Y110570D01*
X230983Y110570D01*
D02*
G37*
G36*
X224783D02*
X224848Y110556D01*
X224908Y110529D01*
X224962Y110492D01*
X225008Y110445D01*
X225044Y110389D01*
X225069Y110328D01*
X225080Y110263D01*
X225080Y110230D01*
X225080Y110198D01*
X225066Y110135D01*
X225041Y110077D01*
X225004Y110024D01*
X224958Y109979D01*
X224905Y109945D01*
X224845Y109921D01*
X224782Y109910D01*
X224750Y109910D01*
X224750D01*
X224718Y109910D01*
X224655Y109921D01*
X224595Y109945D01*
X224542Y109979D01*
X224496Y110024D01*
X224459Y110077D01*
X224434Y110135D01*
X224420Y110198D01*
X224420Y110230D01*
X224420Y110263D01*
X224431Y110328D01*
X224456Y110389D01*
X224492Y110445D01*
X224538Y110492D01*
X224592Y110529D01*
X224652Y110556D01*
X224717Y110570D01*
X224750Y110570D01*
X224783Y110570D01*
D02*
G37*
G36*
X157134Y112376D02*
X157207Y112361D01*
X157276Y112331D01*
X157338Y112289D01*
X157390Y112235D01*
X157430Y112172D01*
X157458Y112103D01*
X157472Y112029D01*
X157471Y111992D01*
X157471Y111956D01*
X157456Y111885D01*
X157427Y111818D01*
X157386Y111758D01*
X157334Y111707D01*
X157273Y111667D01*
X157206Y111640D01*
X157134Y111627D01*
X157098Y111627D01*
X157061Y111627D01*
X156990Y111640D01*
X156922Y111667D01*
X156860Y111707D01*
X156808Y111758D01*
X156767Y111818D01*
X156738Y111885D01*
X156722Y111956D01*
X156722Y111993D01*
X156722Y112030D01*
X156735Y112104D01*
X156763Y112173D01*
X156804Y112236D01*
X156856Y112289D01*
X156918Y112332D01*
X156986Y112361D01*
X157060Y112377D01*
X157097Y112377D01*
X157134Y112376D01*
D02*
G37*
G36*
X178508Y112260D02*
X178576Y112233D01*
X178638Y112193D01*
X178690Y112142D01*
X178731Y112082D01*
X178760Y112015D01*
X178775Y111944D01*
X178776Y111907D01*
Y111907D01*
X178776Y111870D01*
X178763Y111796D01*
X178735Y111727D01*
X178694Y111664D01*
X178642Y111611D01*
X178580Y111568D01*
X178512Y111539D01*
X178438Y111523D01*
X178401Y111523D01*
X178364Y111524D01*
X178291Y111539D01*
X178222Y111569D01*
X178160Y111611D01*
X178108Y111665D01*
X178068Y111728D01*
X178040Y111797D01*
X178026Y111871D01*
X178027Y111908D01*
X178027Y111944D01*
X178042Y112015D01*
X178071Y112082D01*
X178112Y112142D01*
X178164Y112193D01*
X178225Y112233D01*
X178292Y112260D01*
X178364Y112273D01*
X178400Y112273D01*
Y112273D01*
X178437Y112273D01*
X178508Y112260D01*
D02*
G37*
G36*
X158236Y112376D02*
X158309Y112361D01*
X158378Y112331D01*
X158440Y112289D01*
X158492Y112235D01*
X158532Y112172D01*
X158560Y112103D01*
X158574Y112029D01*
X158573Y111992D01*
X158573Y111956D01*
X158558Y111885D01*
X158529Y111818D01*
X158488Y111758D01*
X158436Y111707D01*
X158375Y111667D01*
X158308Y111640D01*
X158236Y111627D01*
X158200Y111627D01*
Y111627D01*
X158163Y111627D01*
X158092Y111640D01*
X158024Y111667D01*
X157962Y111707D01*
X157910Y111758D01*
X157869Y111818D01*
X157840Y111885D01*
X157825Y111956D01*
X157824Y111993D01*
X157824Y112030D01*
X157837Y112104D01*
X157865Y112173D01*
X157906Y112236D01*
X157958Y112289D01*
X158020Y112332D01*
X158088Y112361D01*
X158162Y112377D01*
X158199Y112377D01*
X158236Y112376D01*
D02*
G37*
G36*
X138854Y106415D02*
X138923Y106387D01*
X138986Y106346D01*
X139039Y106294D01*
X139082Y106232D01*
X139111Y106164D01*
X139127Y106090D01*
X139127Y106053D01*
X139127D01*
X139126Y106016D01*
X139111Y105943D01*
X139081Y105874D01*
X139039Y105812D01*
X138985Y105760D01*
X138922Y105720D01*
X138853Y105692D01*
X138779Y105678D01*
X138742Y105679D01*
X138706Y105679D01*
X138635Y105694D01*
X138568Y105723D01*
X138508Y105764D01*
X138457Y105816D01*
X138417Y105877D01*
X138390Y105944D01*
X138377Y106016D01*
X138377Y106052D01*
D01*
Y106052D01*
Y106052D01*
X138377Y106089D01*
X138390Y106160D01*
X138417Y106228D01*
X138457Y106290D01*
X138508Y106342D01*
X138568Y106383D01*
X138635Y106412D01*
X138706Y106428D01*
X138743Y106428D01*
X138780Y106428D01*
X138854Y106415D01*
D02*
G37*
G36*
X138854Y105313D02*
X138923Y105285D01*
X138986Y105244D01*
X139039Y105192D01*
X139082Y105130D01*
X139111Y105062D01*
X139127Y104988D01*
X139127Y104951D01*
X139127D01*
X139126Y104914D01*
X139111Y104841D01*
X139081Y104772D01*
X139039Y104710D01*
X138985Y104658D01*
X138922Y104618D01*
X138853Y104590D01*
X138779Y104576D01*
X138742Y104577D01*
X138706Y104577D01*
X138635Y104592D01*
X138568Y104621D01*
X138508Y104662D01*
X138457Y104714D01*
X138417Y104775D01*
X138390Y104842D01*
X138377Y104914D01*
X138377Y104950D01*
X138377D01*
X138377Y104987D01*
X138390Y105058D01*
X138417Y105126D01*
X138457Y105188D01*
X138508Y105240D01*
X138568Y105281D01*
X138635Y105310D01*
X138706Y105325D01*
X138743Y105326D01*
X138780Y105326D01*
X138854Y105313D01*
D02*
G37*
G36*
X206183Y110570D02*
X206248Y110556D01*
X206308Y110529D01*
X206362Y110492D01*
X206408Y110445D01*
X206444Y110389D01*
X206469Y110328D01*
X206480Y110263D01*
X206480Y110230D01*
X206480Y110198D01*
X206466Y110135D01*
X206441Y110077D01*
X206404Y110024D01*
X206358Y109979D01*
X206305Y109945D01*
X206245Y109921D01*
X206182Y109910D01*
X206150Y109910D01*
X206150D01*
X206118Y109910D01*
X206055Y109921D01*
X205995Y109945D01*
X205942Y109979D01*
X205896Y110024D01*
X205859Y110077D01*
X205834Y110135D01*
X205820Y110198D01*
X205820Y110230D01*
X205820Y110263D01*
X205831Y110328D01*
X205856Y110389D01*
X205892Y110445D01*
X205938Y110492D01*
X205992Y110529D01*
X206052Y110556D01*
X206117Y110570D01*
X206150Y110570D01*
X206183Y110570D01*
D02*
G37*
G36*
X218583D02*
X218648Y110556D01*
X218708Y110529D01*
X218762Y110492D01*
X218808Y110445D01*
X218844Y110389D01*
X218869Y110328D01*
X218880Y110263D01*
X218880Y110230D01*
X218880Y110198D01*
X218866Y110135D01*
X218841Y110077D01*
X218804Y110024D01*
X218758Y109979D01*
X218705Y109945D01*
X218645Y109921D01*
X218582Y109910D01*
X218550Y109910D01*
X218550D01*
X218518Y109910D01*
X218455Y109921D01*
X218395Y109945D01*
X218342Y109979D01*
X218296Y110024D01*
X218259Y110077D01*
X218234Y110135D01*
X218220Y110198D01*
X218220Y110230D01*
X218220Y110263D01*
X218231Y110328D01*
X218256Y110389D01*
X218292Y110445D01*
X218338Y110492D01*
X218392Y110529D01*
X218452Y110556D01*
X218517Y110570D01*
X218550Y110570D01*
X218583Y110570D01*
D02*
G37*
G36*
X212383D02*
X212448Y110556D01*
X212508Y110529D01*
X212562Y110492D01*
X212608Y110445D01*
X212644Y110389D01*
X212669Y110328D01*
X212680Y110263D01*
X212680Y110230D01*
X212680Y110198D01*
X212666Y110135D01*
X212641Y110077D01*
X212604Y110024D01*
X212558Y109979D01*
X212505Y109945D01*
X212445Y109921D01*
X212382Y109910D01*
X212350Y109910D01*
X212350D01*
X212318Y109910D01*
X212255Y109921D01*
X212195Y109945D01*
X212142Y109979D01*
X212096Y110024D01*
X212059Y110077D01*
X212034Y110135D01*
X212020Y110198D01*
X212020Y110230D01*
X212020Y110263D01*
X212031Y110328D01*
X212056Y110389D01*
X212092Y110445D01*
X212138Y110492D01*
X212192Y110529D01*
X212252Y110556D01*
X212317Y110570D01*
X212350Y110570D01*
X212383Y110570D01*
D02*
G37*
G36*
X187354Y129315D02*
X187423Y129287D01*
X187486Y129246D01*
X187539Y129194D01*
X187582Y129132D01*
X187611Y129064D01*
X187627Y128990D01*
X187627Y128953D01*
X187627D01*
X187626Y128916D01*
X187611Y128843D01*
X187581Y128774D01*
X187539Y128712D01*
X187485Y128660D01*
X187422Y128620D01*
X187353Y128592D01*
X187279Y128578D01*
X187242Y128579D01*
X187206Y128579D01*
X187135Y128594D01*
X187068Y128623D01*
X187008Y128664D01*
X186957Y128716D01*
X186917Y128777D01*
X186890Y128844D01*
X186877Y128916D01*
X186877Y128952D01*
D01*
Y128952D01*
Y128952D01*
X186877Y128989D01*
X186890Y129060D01*
X186917Y129128D01*
X186957Y129190D01*
X187008Y129242D01*
X187068Y129283D01*
X187135Y129312D01*
X187206Y129328D01*
X187243Y129328D01*
X187280Y129328D01*
X187354Y129315D01*
D02*
G37*
G36*
X185054D02*
X185123Y129287D01*
X185186Y129246D01*
X185239Y129194D01*
X185282Y129132D01*
X185311Y129064D01*
X185327Y128990D01*
X185327Y128953D01*
X185327D01*
X185326Y128916D01*
X185311Y128843D01*
X185281Y128774D01*
X185239Y128712D01*
X185185Y128660D01*
X185122Y128620D01*
X185053Y128592D01*
X184979Y128578D01*
X184942Y128579D01*
X184906Y128579D01*
X184835Y128594D01*
X184768Y128623D01*
X184708Y128664D01*
X184657Y128716D01*
X184617Y128777D01*
X184590Y128844D01*
X184577Y128916D01*
X184577Y128952D01*
D01*
Y128952D01*
Y128952D01*
X184577Y128989D01*
X184590Y129060D01*
X184617Y129128D01*
X184657Y129190D01*
X184708Y129242D01*
X184768Y129283D01*
X184835Y129312D01*
X184906Y129328D01*
X184943Y129328D01*
X184980Y129328D01*
X185054Y129315D01*
D02*
G37*
G36*
X135230Y129824D02*
X135267Y129824D01*
X135338Y129809D01*
X135405Y129780D01*
X135465Y129739D01*
X135516Y129687D01*
X135555Y129626D01*
X135582Y129559D01*
X135596Y129487D01*
X135595Y129451D01*
X135596Y129415D01*
X135583Y129343D01*
X135556Y129275D01*
X135516Y129213D01*
X135465Y129161D01*
X135405Y129120D01*
X135337Y129091D01*
X135266Y129076D01*
X135229Y129075D01*
X135192Y129075D01*
X135119Y129088D01*
X135049Y129116D01*
X134986Y129157D01*
X134933Y129209D01*
X134891Y129271D01*
X134861Y129340D01*
X134846Y129413D01*
X134845Y129450D01*
X134846Y129487D01*
X134862Y129561D01*
X134891Y129629D01*
X134934Y129691D01*
X134987Y129743D01*
X135050Y129784D01*
X135119Y129811D01*
X135193Y129825D01*
X135230Y129824D01*
D02*
G37*
G36*
X192554Y129315D02*
X192623Y129287D01*
X192686Y129246D01*
X192739Y129194D01*
X192782Y129132D01*
X192811Y129064D01*
X192827Y128990D01*
X192827Y128953D01*
X192827D01*
X192826Y128916D01*
X192811Y128843D01*
X192781Y128774D01*
X192739Y128712D01*
X192685Y128660D01*
X192622Y128620D01*
X192553Y128592D01*
X192479Y128578D01*
X192442Y128579D01*
X192406Y128579D01*
X192335Y128594D01*
X192268Y128623D01*
X192208Y128664D01*
X192157Y128716D01*
X192117Y128777D01*
X192090Y128844D01*
X192077Y128916D01*
X192077Y128952D01*
D01*
Y128952D01*
Y128952D01*
X192077Y128989D01*
X192090Y129060D01*
X192117Y129128D01*
X192157Y129190D01*
X192208Y129242D01*
X192268Y129283D01*
X192335Y129312D01*
X192406Y129328D01*
X192443Y129328D01*
X192480Y129328D01*
X192554Y129315D01*
D02*
G37*
G36*
X192554Y128213D02*
X192623Y128185D01*
X192686Y128144D01*
X192739Y128092D01*
X192782Y128030D01*
X192811Y127962D01*
X192827Y127888D01*
X192827Y127851D01*
X192827D01*
X192826Y127814D01*
X192811Y127741D01*
X192781Y127672D01*
X192739Y127610D01*
X192685Y127558D01*
X192622Y127518D01*
X192553Y127490D01*
X192479Y127476D01*
X192442Y127477D01*
X192406Y127477D01*
X192335Y127492D01*
X192268Y127521D01*
X192208Y127562D01*
X192157Y127614D01*
X192117Y127675D01*
X192090Y127742D01*
X192077Y127814D01*
X192077Y127850D01*
X192077D01*
X192077Y127887D01*
X192090Y127958D01*
X192117Y128026D01*
X192157Y128088D01*
X192208Y128140D01*
X192268Y128181D01*
X192335Y128210D01*
X192406Y128225D01*
X192443Y128226D01*
X192480Y128226D01*
X192554Y128213D01*
D02*
G37*
G36*
X185054D02*
X185123Y128185D01*
X185186Y128144D01*
X185239Y128092D01*
X185282Y128030D01*
X185311Y127962D01*
X185327Y127888D01*
X185327Y127851D01*
X185327D01*
X185326Y127814D01*
X185311Y127741D01*
X185281Y127672D01*
X185239Y127610D01*
X185185Y127558D01*
X185122Y127518D01*
X185053Y127490D01*
X184979Y127476D01*
X184942Y127477D01*
X184906Y127477D01*
X184835Y127492D01*
X184768Y127521D01*
X184708Y127562D01*
X184657Y127614D01*
X184617Y127675D01*
X184590Y127742D01*
X184577Y127814D01*
X184577Y127850D01*
X184577D01*
X184577Y127887D01*
X184590Y127958D01*
X184617Y128026D01*
X184657Y128088D01*
X184708Y128140D01*
X184768Y128181D01*
X184835Y128210D01*
X184906Y128225D01*
X184943Y128226D01*
X184980Y128226D01*
X185054Y128213D01*
D02*
G37*
G36*
X143910Y119160D02*
X143978Y119133D01*
X144040Y119093D01*
X144092Y119042D01*
X144133Y118982D01*
X144162Y118915D01*
X144178Y118844D01*
X144178Y118807D01*
X144178Y118770D01*
X144165Y118696D01*
X144137Y118627D01*
X144096Y118564D01*
X144044Y118511D01*
X143982Y118468D01*
X143914Y118439D01*
X143840Y118423D01*
X143803Y118423D01*
X143766Y118424D01*
X143693Y118439D01*
X143624Y118469D01*
X143562Y118511D01*
X143510Y118565D01*
X143470Y118628D01*
X143442Y118697D01*
X143428Y118771D01*
X143429Y118808D01*
X143429Y118844D01*
X143444Y118915D01*
X143473Y118982D01*
X143514Y119042D01*
X143566Y119093D01*
X143627Y119133D01*
X143694Y119160D01*
X143766Y119173D01*
X143802Y119173D01*
D01*
X143802D01*
X143802D01*
X143839Y119173D01*
X143910Y119160D01*
D02*
G37*
G36*
X187354Y128213D02*
X187423Y128185D01*
X187486Y128144D01*
X187539Y128092D01*
X187582Y128030D01*
X187611Y127962D01*
X187627Y127888D01*
X187627Y127851D01*
X187627D01*
X187626Y127814D01*
X187611Y127741D01*
X187581Y127672D01*
X187539Y127610D01*
X187485Y127558D01*
X187422Y127518D01*
X187353Y127490D01*
X187279Y127476D01*
X187242Y127477D01*
X187206Y127477D01*
X187135Y127492D01*
X187068Y127521D01*
X187008Y127562D01*
X186957Y127614D01*
X186917Y127675D01*
X186890Y127742D01*
X186877Y127814D01*
X186877Y127850D01*
X186877D01*
X186877Y127887D01*
X186890Y127958D01*
X186917Y128026D01*
X186957Y128088D01*
X187008Y128140D01*
X187068Y128181D01*
X187135Y128210D01*
X187206Y128225D01*
X187243Y128226D01*
X187280Y128226D01*
X187354Y128213D01*
D02*
G37*
G36*
X151710Y136060D02*
X151778Y136033D01*
X151840Y135993D01*
X151892Y135942D01*
X151933Y135882D01*
X151962Y135815D01*
X151978Y135744D01*
X151978Y135707D01*
X151978Y135670D01*
X151965Y135596D01*
X151937Y135527D01*
X151896Y135464D01*
X151844Y135411D01*
X151782Y135368D01*
X151714Y135339D01*
X151640Y135323D01*
X151603Y135323D01*
X151566Y135324D01*
X151493Y135339D01*
X151424Y135369D01*
X151362Y135411D01*
X151310Y135465D01*
X151270Y135528D01*
X151242Y135597D01*
X151228Y135671D01*
X151229Y135708D01*
X151229Y135744D01*
X151244Y135815D01*
X151273Y135882D01*
X151314Y135942D01*
X151366Y135993D01*
X151427Y136033D01*
X151494Y136060D01*
X151566Y136073D01*
X151602Y136073D01*
X151639Y136073D01*
X151710Y136060D01*
D02*
G37*
G36*
X140254Y129813D02*
X140323Y129785D01*
X140386Y129744D01*
X140439Y129692D01*
X140482Y129630D01*
X140511Y129562D01*
X140527Y129488D01*
X140527Y129451D01*
X140527D01*
X140526Y129414D01*
X140511Y129341D01*
X140481Y129272D01*
X140439Y129210D01*
X140385Y129158D01*
X140322Y129118D01*
X140253Y129090D01*
X140179Y129076D01*
X140142Y129077D01*
X140106Y129077D01*
X140035Y129092D01*
X139968Y129121D01*
X139908Y129162D01*
X139857Y129214D01*
X139817Y129275D01*
X139790Y129342D01*
X139777Y129414D01*
X139777Y129450D01*
X139777D01*
X139777Y129487D01*
X139790Y129558D01*
X139817Y129626D01*
X139857Y129688D01*
X139908Y129740D01*
X139968Y129781D01*
X140035Y129810D01*
X140106Y129825D01*
X140143Y129826D01*
X140180Y129826D01*
X140254Y129813D01*
D02*
G37*
G36*
X158254Y134315D02*
X158323Y134287D01*
X158386Y134246D01*
X158439Y134194D01*
X158482Y134132D01*
X158511Y134064D01*
X158527Y133990D01*
X158527Y133953D01*
X158527D01*
X158526Y133916D01*
X158511Y133843D01*
X158481Y133774D01*
X158439Y133712D01*
X158385Y133660D01*
X158322Y133620D01*
X158253Y133592D01*
X158179Y133578D01*
X158142Y133579D01*
X158106Y133579D01*
X158035Y133594D01*
X157968Y133623D01*
X157908Y133664D01*
X157857Y133716D01*
X157817Y133777D01*
X157790Y133844D01*
X157777Y133916D01*
X157777Y133952D01*
D01*
Y133952D01*
Y133952D01*
X157777Y133989D01*
X157790Y134060D01*
X157817Y134128D01*
X157857Y134190D01*
X157908Y134242D01*
X157968Y134283D01*
X158035Y134312D01*
X158106Y134328D01*
X158143Y134328D01*
X158180Y134328D01*
X158254Y134315D01*
D02*
G37*
G36*
X163654Y133213D02*
X163723Y133185D01*
X163786Y133144D01*
X163839Y133092D01*
X163882Y133030D01*
X163911Y132962D01*
X163927Y132888D01*
X163927Y132851D01*
X163927D01*
X163926Y132814D01*
X163911Y132741D01*
X163881Y132672D01*
X163839Y132610D01*
X163785Y132558D01*
X163722Y132518D01*
X163653Y132490D01*
X163579Y132476D01*
X163542Y132477D01*
X163506Y132477D01*
X163435Y132492D01*
X163368Y132521D01*
X163308Y132562D01*
X163257Y132614D01*
X163217Y132675D01*
X163190Y132742D01*
X163177Y132814D01*
X163177Y132850D01*
X163177D01*
X163177Y132887D01*
X163190Y132958D01*
X163217Y133026D01*
X163257Y133088D01*
X163308Y133140D01*
X163368Y133181D01*
X163435Y133210D01*
X163506Y133225D01*
X163543Y133226D01*
X163580Y133226D01*
X163654Y133213D01*
D02*
G37*
G36*
X163654Y134315D02*
X163723Y134287D01*
X163786Y134246D01*
X163839Y134194D01*
X163882Y134132D01*
X163911Y134064D01*
X163927Y133990D01*
X163927Y133953D01*
X163927D01*
X163926Y133916D01*
X163911Y133843D01*
X163881Y133774D01*
X163839Y133712D01*
X163785Y133660D01*
X163722Y133620D01*
X163653Y133592D01*
X163579Y133578D01*
X163542Y133579D01*
X163506Y133579D01*
X163435Y133594D01*
X163368Y133623D01*
X163308Y133664D01*
X163257Y133716D01*
X163217Y133777D01*
X163190Y133844D01*
X163177Y133916D01*
X163177Y133952D01*
D01*
Y133952D01*
Y133952D01*
X163177Y133989D01*
X163190Y134060D01*
X163217Y134128D01*
X163257Y134190D01*
X163308Y134242D01*
X163368Y134283D01*
X163435Y134312D01*
X163506Y134328D01*
X163543Y134328D01*
X163580Y134328D01*
X163654Y134315D01*
D02*
G37*
G36*
X150608Y136060D02*
X150676Y136033D01*
X150738Y135993D01*
X150790Y135942D01*
X150831Y135882D01*
X150860Y135815D01*
X150875Y135744D01*
X150876Y135707D01*
Y135707D01*
X150876Y135670D01*
X150863Y135596D01*
X150835Y135527D01*
X150794Y135464D01*
X150742Y135411D01*
X150680Y135368D01*
X150612Y135339D01*
X150538Y135323D01*
X150501Y135323D01*
X150464Y135324D01*
X150391Y135339D01*
X150322Y135369D01*
X150260Y135411D01*
X150208Y135465D01*
X150168Y135528D01*
X150140Y135597D01*
X150126Y135671D01*
X150127Y135708D01*
X150127Y135744D01*
X150142Y135815D01*
X150171Y135882D01*
X150212Y135942D01*
X150264Y135993D01*
X150325Y136033D01*
X150392Y136060D01*
X150464Y136073D01*
X150500Y136073D01*
Y136073D01*
X150537Y136073D01*
X150608Y136060D01*
D02*
G37*
G36*
X158254Y133213D02*
X158323Y133185D01*
X158386Y133144D01*
X158439Y133092D01*
X158482Y133030D01*
X158511Y132962D01*
X158527Y132888D01*
X158527Y132851D01*
X158527D01*
X158526Y132814D01*
X158511Y132741D01*
X158481Y132672D01*
X158439Y132610D01*
X158385Y132558D01*
X158322Y132518D01*
X158253Y132490D01*
X158179Y132476D01*
X158142Y132477D01*
X158106Y132477D01*
X158035Y132492D01*
X157968Y132521D01*
X157908Y132562D01*
X157857Y132614D01*
X157817Y132675D01*
X157790Y132742D01*
X157777Y132814D01*
X157777Y132850D01*
X157777D01*
X157777Y132887D01*
X157790Y132958D01*
X157817Y133026D01*
X157857Y133088D01*
X157908Y133140D01*
X157968Y133181D01*
X158035Y133210D01*
X158106Y133225D01*
X158143Y133226D01*
X158180Y133226D01*
X158254Y133213D01*
D02*
G37*
G36*
X172410Y129160D02*
X172478Y129133D01*
X172540Y129093D01*
X172592Y129042D01*
X172633Y128982D01*
X172662Y128915D01*
X172678Y128844D01*
X172678Y128807D01*
X172678Y128770D01*
X172665Y128696D01*
X172637Y128627D01*
X172596Y128564D01*
X172544Y128511D01*
X172482Y128468D01*
X172414Y128439D01*
X172340Y128423D01*
X172303Y128423D01*
X172266Y128424D01*
X172193Y128439D01*
X172124Y128469D01*
X172062Y128511D01*
X172010Y128565D01*
X171970Y128628D01*
X171942Y128697D01*
X171928Y128771D01*
X171929Y128808D01*
X171929Y128844D01*
X171944Y128915D01*
X171973Y128982D01*
X172014Y129042D01*
X172066Y129093D01*
X172127Y129133D01*
X172194Y129160D01*
X172266Y129173D01*
X172302Y129173D01*
D01*
X172302D01*
X172302D01*
X172339Y129173D01*
X172410Y129160D01*
D02*
G37*
G36*
X171308Y129160D02*
X171376Y129133D01*
X171438Y129093D01*
X171490Y129042D01*
X171531Y128982D01*
X171560Y128915D01*
X171575Y128844D01*
X171576Y128807D01*
Y128807D01*
X171576Y128770D01*
X171563Y128696D01*
X171535Y128627D01*
X171494Y128564D01*
X171442Y128511D01*
X171380Y128468D01*
X171312Y128439D01*
X171238Y128423D01*
X171201Y128423D01*
X171164Y128424D01*
X171091Y128439D01*
X171022Y128469D01*
X170960Y128511D01*
X170908Y128565D01*
X170868Y128628D01*
X170840Y128697D01*
X170826Y128771D01*
X170827Y128808D01*
X170827Y128844D01*
X170842Y128915D01*
X170871Y128982D01*
X170912Y129042D01*
X170964Y129093D01*
X171025Y129133D01*
X171092Y129160D01*
X171164Y129173D01*
X171200Y129173D01*
Y129173D01*
X171237Y129173D01*
X171308Y129160D01*
D02*
G37*
G36*
X140254Y130915D02*
X140323Y130887D01*
X140386Y130846D01*
X140439Y130794D01*
X140482Y130732D01*
X140511Y130664D01*
X140527Y130590D01*
X140527Y130553D01*
X140527D01*
X140526Y130516D01*
X140511Y130443D01*
X140481Y130374D01*
X140439Y130312D01*
X140385Y130260D01*
X140322Y130220D01*
X140253Y130192D01*
X140179Y130178D01*
X140142Y130179D01*
X140106Y130179D01*
X140035Y130194D01*
X139968Y130223D01*
X139908Y130264D01*
X139857Y130316D01*
X139817Y130377D01*
X139790Y130444D01*
X139777Y130516D01*
X139777Y130552D01*
D01*
Y130552D01*
Y130552D01*
X139777Y130589D01*
X139790Y130660D01*
X139817Y130728D01*
X139857Y130790D01*
X139908Y130842D01*
X139968Y130883D01*
X140035Y130912D01*
X140106Y130928D01*
X140143Y130928D01*
X140180Y130928D01*
X140254Y130915D01*
D02*
G37*
G36*
X135230Y130926D02*
X135267Y130926D01*
X135338Y130911D01*
X135405Y130882D01*
X135465Y130841D01*
X135516Y130789D01*
X135555Y130728D01*
X135582Y130661D01*
X135596Y130589D01*
X135595Y130553D01*
X135595D01*
X135596Y130517D01*
X135583Y130445D01*
X135556Y130377D01*
X135516Y130316D01*
X135465Y130263D01*
X135405Y130222D01*
X135337Y130193D01*
X135266Y130178D01*
X135229Y130177D01*
X135229D01*
X135192Y130177D01*
X135119Y130190D01*
X135049Y130218D01*
X134986Y130259D01*
X134933Y130311D01*
X134891Y130373D01*
X134861Y130442D01*
X134846Y130515D01*
X134845Y130552D01*
X134846Y130589D01*
X134862Y130663D01*
X134891Y130731D01*
X134934Y130793D01*
X134987Y130845D01*
X135050Y130886D01*
X135119Y130913D01*
X135193Y130927D01*
X135230Y130926D01*
D02*
G37*
G36*
X142808Y119160D02*
X142876Y119133D01*
X142938Y119093D01*
X142990Y119042D01*
X143031Y118982D01*
X143060Y118915D01*
X143075Y118844D01*
X143076Y118807D01*
Y118807D01*
X143076Y118770D01*
X143063Y118696D01*
X143035Y118627D01*
X142994Y118564D01*
X142942Y118511D01*
X142880Y118468D01*
X142812Y118439D01*
X142738Y118423D01*
X142701Y118423D01*
X142664Y118424D01*
X142591Y118439D01*
X142522Y118469D01*
X142460Y118511D01*
X142408Y118565D01*
X142368Y118628D01*
X142340Y118697D01*
X142326Y118771D01*
X142327Y118808D01*
X142327Y118844D01*
X142342Y118915D01*
X142371Y118982D01*
X142412Y119042D01*
X142464Y119093D01*
X142525Y119133D01*
X142592Y119160D01*
X142664Y119173D01*
X142700Y119173D01*
Y119173D01*
X142737Y119173D01*
X142808Y119160D01*
D02*
G37*
G36*
X206183Y115890D02*
X206248Y115876D01*
X206308Y115850D01*
X206362Y115812D01*
X206408Y115765D01*
X206444Y115709D01*
X206469Y115648D01*
X206480Y115583D01*
X206480Y115550D01*
X206480Y115518D01*
X206466Y115455D01*
X206441Y115397D01*
X206404Y115344D01*
X206358Y115299D01*
X206305Y115265D01*
X206245Y115241D01*
X206182Y115230D01*
X206150Y115230D01*
X206150D01*
X206118Y115230D01*
X206055Y115241D01*
X205995Y115265D01*
X205942Y115299D01*
X205896Y115344D01*
X205859Y115397D01*
X205834Y115455D01*
X205820Y115518D01*
X205820Y115550D01*
X205820Y115583D01*
X205831Y115648D01*
X205856Y115709D01*
X205892Y115765D01*
X205938Y115812D01*
X205992Y115850D01*
X206052Y115876D01*
X206117Y115890D01*
X206150Y115890D01*
X206183Y115890D01*
D02*
G37*
G36*
X233531Y114286D02*
X233607Y114255D01*
X233676Y114211D01*
X233734Y114153D01*
X233780Y114086D01*
X233813Y114011D01*
X233830Y113931D01*
X233830Y113890D01*
Y113849D01*
X233814Y113767D01*
X233782Y113691D01*
X233736Y113622D01*
X233678Y113564D01*
X233609Y113518D01*
X233533Y113486D01*
X233451Y113470D01*
X233369D01*
X233287Y113486D01*
X233211Y113518D01*
X233142Y113564D01*
X233084Y113622D01*
X233038Y113691D01*
X233006Y113767D01*
X232990Y113849D01*
Y113890D01*
X232990Y113931D01*
X233007Y114011D01*
X233040Y114086D01*
X233086Y114153D01*
X233144Y114211D01*
X233213Y114255D01*
X233289Y114286D01*
X233369Y114300D01*
X233410Y114300D01*
X233451Y114300D01*
X233531Y114286D01*
D02*
G37*
G36*
X218583Y115890D02*
X218648Y115876D01*
X218708Y115850D01*
X218762Y115812D01*
X218808Y115765D01*
X218844Y115709D01*
X218869Y115648D01*
X218880Y115583D01*
X218880Y115550D01*
X218880Y115518D01*
X218866Y115455D01*
X218841Y115397D01*
X218804Y115344D01*
X218758Y115299D01*
X218705Y115265D01*
X218645Y115241D01*
X218582Y115230D01*
X218550Y115230D01*
X218550D01*
X218518Y115230D01*
X218455Y115241D01*
X218395Y115265D01*
X218342Y115299D01*
X218296Y115344D01*
X218259Y115397D01*
X218234Y115455D01*
X218220Y115518D01*
X218220Y115550D01*
X218220Y115583D01*
X218231Y115648D01*
X218256Y115709D01*
X218292Y115765D01*
X218338Y115812D01*
X218392Y115850D01*
X218452Y115876D01*
X218517Y115890D01*
X218550Y115890D01*
X218583Y115890D01*
D02*
G37*
G36*
X212383D02*
X212448Y115876D01*
X212508Y115850D01*
X212562Y115812D01*
X212608Y115765D01*
X212644Y115709D01*
X212669Y115648D01*
X212680Y115583D01*
X212680Y115550D01*
X212680Y115518D01*
X212666Y115455D01*
X212641Y115397D01*
X212604Y115344D01*
X212558Y115299D01*
X212505Y115265D01*
X212445Y115241D01*
X212382Y115230D01*
X212350Y115230D01*
X212350D01*
X212318Y115230D01*
X212255Y115241D01*
X212195Y115265D01*
X212142Y115299D01*
X212096Y115344D01*
X212059Y115397D01*
X212034Y115455D01*
X212020Y115518D01*
X212020Y115550D01*
X212020Y115583D01*
X212031Y115648D01*
X212056Y115709D01*
X212092Y115765D01*
X212138Y115812D01*
X212192Y115850D01*
X212252Y115876D01*
X212317Y115890D01*
X212350Y115890D01*
X212383Y115890D01*
D02*
G37*
G36*
X228611Y114286D02*
X228687Y114255D01*
X228756Y114211D01*
X228814Y114153D01*
X228860Y114086D01*
X228893Y114011D01*
X228910Y113931D01*
X228910Y113890D01*
Y113849D01*
X228894Y113767D01*
X228862Y113691D01*
X228816Y113622D01*
X228758Y113564D01*
X228689Y113518D01*
X228613Y113486D01*
X228531Y113470D01*
X228449D01*
X228367Y113486D01*
X228291Y113518D01*
X228222Y113564D01*
X228164Y113622D01*
X228118Y113691D01*
X228086Y113767D01*
X228070Y113849D01*
Y113890D01*
X228070Y113931D01*
X228087Y114011D01*
X228120Y114086D01*
X228166Y114153D01*
X228224Y114211D01*
X228293Y114255D01*
X228369Y114286D01*
X228449Y114300D01*
X228490Y114300D01*
X228531Y114300D01*
X228611Y114286D01*
D02*
G37*
G36*
X221131D02*
X221207Y114255D01*
X221276Y114211D01*
X221334Y114153D01*
X221380Y114086D01*
X221413Y114011D01*
X221430Y113931D01*
X221430Y113890D01*
Y113849D01*
X221414Y113767D01*
X221382Y113691D01*
X221336Y113622D01*
X221278Y113564D01*
X221209Y113518D01*
X221133Y113486D01*
X221051Y113470D01*
X220969D01*
X220887Y113486D01*
X220811Y113518D01*
X220742Y113564D01*
X220684Y113622D01*
X220638Y113691D01*
X220606Y113767D01*
X220590Y113849D01*
Y113890D01*
X220590Y113931D01*
X220607Y114011D01*
X220640Y114086D01*
X220686Y114153D01*
X220744Y114211D01*
X220813Y114255D01*
X220889Y114286D01*
X220969Y114300D01*
X221010Y114300D01*
X221051Y114300D01*
X221131Y114286D01*
D02*
G37*
G36*
X216211D02*
X216287Y114255D01*
X216356Y114211D01*
X216414Y114153D01*
X216460Y114086D01*
X216493Y114011D01*
X216510Y113931D01*
X216510Y113890D01*
Y113849D01*
X216494Y113767D01*
X216462Y113691D01*
X216416Y113622D01*
X216358Y113564D01*
X216289Y113518D01*
X216213Y113486D01*
X216131Y113470D01*
X216049D01*
X215967Y113486D01*
X215891Y113518D01*
X215822Y113564D01*
X215764Y113622D01*
X215718Y113691D01*
X215686Y113767D01*
X215670Y113849D01*
Y113890D01*
X215670Y113931D01*
X215687Y114011D01*
X215720Y114086D01*
X215766Y114153D01*
X215824Y114211D01*
X215893Y114255D01*
X215969Y114286D01*
X216049Y114300D01*
X216090Y114300D01*
X216131Y114300D01*
X216211Y114286D01*
D02*
G37*
G36*
X227331D02*
X227407Y114255D01*
X227476Y114211D01*
X227534Y114153D01*
X227580Y114086D01*
X227613Y114011D01*
X227630Y113931D01*
X227630Y113890D01*
Y113849D01*
X227614Y113767D01*
X227582Y113691D01*
X227536Y113622D01*
X227478Y113564D01*
X227409Y113518D01*
X227333Y113486D01*
X227251Y113470D01*
X227169D01*
X227087Y113486D01*
X227011Y113518D01*
X226942Y113564D01*
X226884Y113622D01*
X226838Y113691D01*
X226806Y113767D01*
X226790Y113849D01*
Y113890D01*
X226790Y113931D01*
X226807Y114011D01*
X226840Y114086D01*
X226886Y114153D01*
X226944Y114211D01*
X227013Y114255D01*
X227089Y114286D01*
X227169Y114300D01*
X227210Y114300D01*
X227251Y114300D01*
X227331Y114286D01*
D02*
G37*
G36*
X222411D02*
X222487Y114255D01*
X222556Y114211D01*
X222614Y114153D01*
X222660Y114086D01*
X222693Y114011D01*
X222710Y113931D01*
X222710Y113890D01*
Y113849D01*
X222694Y113767D01*
X222662Y113691D01*
X222616Y113622D01*
X222558Y113564D01*
X222489Y113518D01*
X222413Y113486D01*
X222331Y113470D01*
X222249D01*
X222167Y113486D01*
X222091Y113518D01*
X222022Y113564D01*
X221964Y113622D01*
X221918Y113691D01*
X221886Y113767D01*
X221870Y113849D01*
Y113890D01*
X221870Y113931D01*
X221887Y114011D01*
X221920Y114086D01*
X221966Y114153D01*
X222024Y114211D01*
X222093Y114255D01*
X222169Y114286D01*
X222249Y114300D01*
X222290Y114300D01*
X222331Y114300D01*
X222411Y114286D01*
D02*
G37*
G36*
X224783Y115890D02*
X224848Y115876D01*
X224908Y115850D01*
X224962Y115812D01*
X225008Y115765D01*
X225044Y115709D01*
X225069Y115648D01*
X225080Y115583D01*
X225080Y115550D01*
X225080Y115518D01*
X225066Y115455D01*
X225041Y115397D01*
X225004Y115344D01*
X224958Y115299D01*
X224905Y115265D01*
X224845Y115241D01*
X224782Y115230D01*
X224750Y115230D01*
X224750D01*
X224718Y115230D01*
X224655Y115241D01*
X224595Y115265D01*
X224542Y115299D01*
X224496Y115344D01*
X224459Y115397D01*
X224434Y115455D01*
X224420Y115518D01*
X224420Y115550D01*
X224420Y115583D01*
X224431Y115648D01*
X224456Y115709D01*
X224492Y115765D01*
X224538Y115812D01*
X224592Y115850D01*
X224652Y115876D01*
X224717Y115890D01*
X224750Y115890D01*
X224783Y115890D01*
D02*
G37*
G36*
X190910Y117360D02*
X190978Y117333D01*
X191040Y117293D01*
X191092Y117242D01*
X191133Y117182D01*
X191162Y117115D01*
X191178Y117044D01*
X191178Y117007D01*
X191178Y116970D01*
X191165Y116896D01*
X191137Y116827D01*
X191096Y116764D01*
X191044Y116711D01*
X190982Y116668D01*
X190914Y116639D01*
X190840Y116623D01*
X190803Y116623D01*
X190766Y116624D01*
X190693Y116639D01*
X190624Y116669D01*
X190562Y116711D01*
X190510Y116765D01*
X190470Y116828D01*
X190442Y116897D01*
X190428Y116971D01*
X190429Y117008D01*
X190429Y117044D01*
X190444Y117115D01*
X190473Y117182D01*
X190514Y117242D01*
X190566Y117293D01*
X190627Y117333D01*
X190694Y117360D01*
X190766Y117373D01*
X190802Y117373D01*
D01*
X190802D01*
X190802D01*
X190839Y117373D01*
X190910Y117360D01*
D02*
G37*
G36*
X143910D02*
X143978Y117333D01*
X144040Y117293D01*
X144092Y117242D01*
X144133Y117182D01*
X144162Y117115D01*
X144178Y117044D01*
X144178Y117007D01*
X144178Y116970D01*
X144165Y116896D01*
X144137Y116827D01*
X144096Y116764D01*
X144044Y116711D01*
X143982Y116668D01*
X143914Y116639D01*
X143840Y116623D01*
X143803Y116623D01*
X143766Y116624D01*
X143693Y116639D01*
X143624Y116669D01*
X143562Y116711D01*
X143510Y116765D01*
X143470Y116828D01*
X143442Y116897D01*
X143428Y116971D01*
X143429Y117008D01*
X143429Y117044D01*
X143444Y117115D01*
X143473Y117182D01*
X143514Y117242D01*
X143566Y117293D01*
X143627Y117333D01*
X143694Y117360D01*
X143766Y117373D01*
X143802Y117373D01*
D01*
X143802D01*
X143802D01*
X143839Y117373D01*
X143910Y117360D01*
D02*
G37*
G36*
X202210D02*
X202278Y117333D01*
X202340Y117293D01*
X202392Y117242D01*
X202433Y117182D01*
X202462Y117115D01*
X202478Y117044D01*
X202478Y117007D01*
X202478Y116970D01*
X202465Y116896D01*
X202437Y116827D01*
X202396Y116764D01*
X202344Y116711D01*
X202282Y116668D01*
X202214Y116639D01*
X202140Y116623D01*
X202103Y116623D01*
X202066Y116624D01*
X201993Y116639D01*
X201924Y116669D01*
X201862Y116711D01*
X201810Y116765D01*
X201770Y116828D01*
X201742Y116897D01*
X201728Y116971D01*
X201729Y117008D01*
X201729Y117044D01*
X201744Y117115D01*
X201773Y117182D01*
X201814Y117242D01*
X201866Y117293D01*
X201927Y117333D01*
X201994Y117360D01*
X202066Y117373D01*
X202102Y117373D01*
D01*
X202102D01*
X202102D01*
X202139Y117373D01*
X202210Y117360D01*
D02*
G37*
G36*
X163654Y119415D02*
X163723Y119387D01*
X163786Y119346D01*
X163839Y119294D01*
X163882Y119232D01*
X163911Y119164D01*
X163927Y119090D01*
X163927Y119053D01*
X163927D01*
X163926Y119016D01*
X163911Y118943D01*
X163881Y118874D01*
X163839Y118812D01*
X163785Y118760D01*
X163722Y118720D01*
X163653Y118692D01*
X163579Y118678D01*
X163542Y118679D01*
X163506Y118679D01*
X163435Y118694D01*
X163368Y118723D01*
X163308Y118764D01*
X163257Y118816D01*
X163217Y118877D01*
X163190Y118944D01*
X163177Y119016D01*
X163177Y119052D01*
D01*
Y119052D01*
Y119052D01*
X163177Y119089D01*
X163190Y119160D01*
X163217Y119228D01*
X163257Y119290D01*
X163308Y119342D01*
X163368Y119383D01*
X163435Y119412D01*
X163506Y119428D01*
X163543Y119428D01*
X163580Y119428D01*
X163654Y119415D01*
D02*
G37*
G36*
X163654Y118313D02*
X163723Y118285D01*
X163786Y118244D01*
X163839Y118192D01*
X163882Y118130D01*
X163911Y118062D01*
X163927Y117988D01*
X163927Y117951D01*
X163927D01*
X163926Y117914D01*
X163911Y117841D01*
X163881Y117772D01*
X163839Y117710D01*
X163785Y117658D01*
X163722Y117618D01*
X163653Y117590D01*
X163579Y117576D01*
X163542Y117577D01*
X163506Y117577D01*
X163435Y117592D01*
X163368Y117621D01*
X163308Y117662D01*
X163257Y117714D01*
X163217Y117775D01*
X163190Y117842D01*
X163177Y117914D01*
X163177Y117950D01*
X163177D01*
X163177Y117987D01*
X163190Y118058D01*
X163217Y118126D01*
X163257Y118188D01*
X163308Y118240D01*
X163368Y118281D01*
X163435Y118310D01*
X163506Y118325D01*
X163543Y118326D01*
X163580Y118326D01*
X163654Y118313D01*
D02*
G37*
G36*
X230983Y115890D02*
X231048Y115876D01*
X231108Y115850D01*
X231162Y115812D01*
X231208Y115765D01*
X231244Y115709D01*
X231269Y115648D01*
X231280Y115583D01*
X231280Y115550D01*
X231280Y115518D01*
X231266Y115455D01*
X231241Y115397D01*
X231204Y115344D01*
X231158Y115299D01*
X231105Y115265D01*
X231045Y115241D01*
X230982Y115230D01*
X230950Y115230D01*
X230950D01*
X230918Y115230D01*
X230855Y115241D01*
X230795Y115265D01*
X230742Y115299D01*
X230696Y115344D01*
X230659Y115397D01*
X230634Y115455D01*
X230620Y115518D01*
X230620Y115550D01*
X230620Y115583D01*
X230631Y115648D01*
X230656Y115709D01*
X230692Y115765D01*
X230738Y115812D01*
X230792Y115850D01*
X230852Y115876D01*
X230917Y115890D01*
X230950Y115890D01*
X230983Y115890D01*
D02*
G37*
G36*
X142808Y117360D02*
X142876Y117333D01*
X142938Y117293D01*
X142990Y117242D01*
X143031Y117182D01*
X143060Y117115D01*
X143075Y117044D01*
X143076Y117007D01*
Y117007D01*
X143076Y116970D01*
X143063Y116896D01*
X143035Y116827D01*
X142994Y116764D01*
X142942Y116711D01*
X142880Y116668D01*
X142812Y116639D01*
X142738Y116623D01*
X142701Y116623D01*
X142664Y116624D01*
X142591Y116639D01*
X142522Y116669D01*
X142460Y116711D01*
X142408Y116765D01*
X142368Y116828D01*
X142340Y116897D01*
X142326Y116971D01*
X142327Y117008D01*
X142327Y117044D01*
X142342Y117115D01*
X142371Y117182D01*
X142412Y117242D01*
X142464Y117293D01*
X142525Y117333D01*
X142592Y117360D01*
X142664Y117373D01*
X142700Y117373D01*
Y117373D01*
X142737Y117373D01*
X142808Y117360D01*
D02*
G37*
G36*
X201108D02*
X201176Y117333D01*
X201238Y117293D01*
X201290Y117242D01*
X201331Y117182D01*
X201360Y117115D01*
X201375Y117044D01*
X201376Y117007D01*
Y117007D01*
X201376Y116970D01*
X201363Y116896D01*
X201335Y116827D01*
X201294Y116764D01*
X201242Y116711D01*
X201180Y116668D01*
X201112Y116639D01*
X201038Y116623D01*
X201001Y116623D01*
X200964Y116624D01*
X200891Y116639D01*
X200822Y116669D01*
X200760Y116711D01*
X200708Y116765D01*
X200668Y116828D01*
X200640Y116897D01*
X200626Y116971D01*
X200627Y117008D01*
X200627Y117044D01*
X200642Y117115D01*
X200671Y117182D01*
X200712Y117242D01*
X200764Y117293D01*
X200825Y117333D01*
X200892Y117360D01*
X200964Y117373D01*
X201000Y117373D01*
Y117373D01*
X201037Y117373D01*
X201108Y117360D01*
D02*
G37*
G36*
X189808D02*
X189876Y117333D01*
X189938Y117293D01*
X189990Y117242D01*
X190031Y117182D01*
X190060Y117115D01*
X190075Y117044D01*
X190076Y117007D01*
Y117007D01*
X190076Y116970D01*
X190063Y116896D01*
X190035Y116827D01*
X189994Y116764D01*
X189942Y116711D01*
X189880Y116668D01*
X189812Y116639D01*
X189738Y116623D01*
X189701Y116623D01*
X189664Y116624D01*
X189591Y116639D01*
X189522Y116669D01*
X189460Y116711D01*
X189408Y116765D01*
X189368Y116828D01*
X189340Y116897D01*
X189326Y116971D01*
X189327Y117008D01*
X189327Y117044D01*
X189342Y117115D01*
X189371Y117182D01*
X189412Y117242D01*
X189464Y117293D01*
X189525Y117333D01*
X189592Y117360D01*
X189664Y117373D01*
X189700Y117373D01*
Y117373D01*
X189737Y117373D01*
X189808Y117360D01*
D02*
G37*
%LPC*%
G36*
X147323Y089748D02*
Y089748D01*
Y089748D01*
D01*
D02*
G37*
G36*
X141123D02*
Y089748D01*
Y089748D01*
D01*
D02*
G37*
G36*
X149623D02*
Y089748D01*
Y089748D01*
D01*
D02*
G37*
G36*
X155823D02*
Y089748D01*
Y089748D01*
D01*
D02*
G37*
G36*
X157098Y111627D02*
X157098D01*
X157098D01*
D01*
D02*
G37*
G36*
X135595Y129451D02*
Y129451D01*
Y129451D01*
D01*
D02*
G37*
G36*
X151602Y136073D02*
D01*
X151602D01*
X151602D01*
D02*
G37*
%LPD*%
D16*
X170750Y131044D02*
D03*
X171734D02*
D03*
X169766D02*
D03*
X176766D02*
D03*
X178734D02*
D03*
X177750D02*
D03*
X184750D02*
D03*
X185734D02*
D03*
X183766D02*
D03*
X190766D02*
D03*
X192734D02*
D03*
X191750D02*
D03*
X134750Y110044D02*
D03*
X135734D02*
D03*
X133766D02*
D03*
X231263Y119437D02*
D03*
X232837D02*
D03*
X231263Y136563D02*
D03*
X232837D02*
D03*
X226463Y119437D02*
D03*
X228037D02*
D03*
X226463Y136563D02*
D03*
X228037D02*
D03*
X221663Y119437D02*
D03*
X223237D02*
D03*
X221663Y136563D02*
D03*
X223237D02*
D03*
X216863Y119437D02*
D03*
X218437D02*
D03*
X216863Y136563D02*
D03*
X218437D02*
D03*
X212063Y119437D02*
D03*
X213637D02*
D03*
X212063Y136563D02*
D03*
X213637D02*
D03*
X207263Y119437D02*
D03*
X208837D02*
D03*
X207263Y136563D02*
D03*
X208837D02*
D03*
X202463Y119437D02*
D03*
X204037D02*
D03*
X202463Y136563D02*
D03*
X204037D02*
D03*
X197663Y119437D02*
D03*
X199237D02*
D03*
X197663Y136563D02*
D03*
X199237D02*
D03*
X192863Y089937D02*
D03*
X194437D02*
D03*
X192863Y107063D02*
D03*
X194437D02*
D03*
X188063Y089937D02*
D03*
X189637D02*
D03*
X188063Y107063D02*
D03*
X189637D02*
D03*
X183263Y089937D02*
D03*
X184837D02*
D03*
X183263Y107063D02*
D03*
X184837D02*
D03*
X212063Y089937D02*
D03*
X213637D02*
D03*
X212063Y107063D02*
D03*
X213637D02*
D03*
X207263Y089937D02*
D03*
X208837D02*
D03*
X207263Y107063D02*
D03*
X208837D02*
D03*
X202463Y089937D02*
D03*
X204037D02*
D03*
X202463Y107063D02*
D03*
X204037D02*
D03*
X197663Y089937D02*
D03*
X199237D02*
D03*
X197663Y107063D02*
D03*
X199237D02*
D03*
X231263Y089937D02*
D03*
X232837D02*
D03*
X231263Y107063D02*
D03*
X232837D02*
D03*
X226463Y089937D02*
D03*
X228037D02*
D03*
X226463Y107063D02*
D03*
X228037D02*
D03*
X221663Y089937D02*
D03*
X223237D02*
D03*
X221663Y107063D02*
D03*
X223237D02*
D03*
X216863Y089937D02*
D03*
X218437D02*
D03*
X216863Y107063D02*
D03*
X218437D02*
D03*
X173663Y089937D02*
D03*
X175237D02*
D03*
X173663Y107063D02*
D03*
X175237D02*
D03*
X168863Y089937D02*
D03*
X170437D02*
D03*
X168863Y107063D02*
D03*
X170437D02*
D03*
X164063Y089937D02*
D03*
X165637D02*
D03*
X164063Y107063D02*
D03*
X165637D02*
D03*
X178463Y089937D02*
D03*
X180037D02*
D03*
X178463Y107063D02*
D03*
X180037D02*
D03*
X159263Y089937D02*
D03*
X160837D02*
D03*
X159263Y107063D02*
D03*
X160837D02*
D03*
X142889Y090300D02*
D03*
X144811D02*
D03*
X153311D02*
D03*
X151389D02*
D03*
X146250Y118861D02*
D03*
Y116939D02*
D03*
D17*
X168663Y133800D02*
D03*
X172837D02*
D03*
X179837D02*
D03*
X175663D02*
D03*
X182663D02*
D03*
X186837D02*
D03*
X193837D02*
D03*
X189663D02*
D03*
X132663Y112800D02*
D03*
X136837D02*
D03*
D19*
X132750Y097000D02*
D03*
Y101000D02*
D03*
D29*
X206150Y115557D02*
D03*
Y110243D02*
D03*
X212350Y115557D02*
D03*
Y110243D02*
D03*
X218550Y115557D02*
D03*
Y110243D02*
D03*
X224750Y115557D02*
D03*
Y110243D02*
D03*
X230950Y115557D02*
D03*
Y110243D02*
D03*
D32*
X136750Y118900D02*
D03*
D53*
X133719Y119900D02*
D03*
X131750Y117931D02*
D03*
X130766D02*
D03*
Y121868D02*
D03*
X131750D02*
D03*
D54*
X133719Y117931D02*
D03*
Y118916D02*
D03*
Y121868D02*
D03*
Y120884D02*
D03*
X131750Y119900D02*
D03*
D55*
X190750Y115000D02*
D03*
X184450Y125900D02*
D03*
X190750Y109900D02*
D03*
X179450D02*
D03*
X146450Y130000D02*
D03*
X154250Y135700D02*
D03*
X174950Y128800D02*
D03*
X202050Y115000D02*
D03*
Y109900D02*
D03*
X145750Y113700D02*
D03*
X139150Y108600D02*
D03*
X157150Y110000D02*
D03*
X137750Y118900D02*
D03*
D56*
X189750Y115000D02*
D03*
X185450Y125900D02*
D03*
X189250Y127900D02*
D03*
X194350D02*
D03*
X189750Y109900D02*
D03*
X178450D02*
D03*
X145450Y130000D02*
D03*
X153250Y135700D02*
D03*
X173950Y128800D02*
D03*
X165550Y132900D02*
D03*
X160150D02*
D03*
X165550Y118000D02*
D03*
X142150Y129500D02*
D03*
X201050Y115000D02*
D03*
Y109900D02*
D03*
X144750Y113700D02*
D03*
X138550Y101700D02*
D03*
X138150Y108600D02*
D03*
X158150Y110000D02*
D03*
X137222Y130503D02*
D03*
D57*
X189250Y128900D02*
D03*
X194350D02*
D03*
X165550Y133900D02*
D03*
X160150D02*
D03*
X165550Y119000D02*
D03*
X142150Y130500D02*
D03*
X138550Y102700D02*
D03*
X137222Y129503D02*
D03*
D58*
X142850Y121500D02*
D03*
Y122500D02*
D03*
Y123500D02*
D03*
Y124500D02*
D03*
Y125500D02*
D03*
Y126500D02*
D03*
Y127500D02*
D03*
X139850Y121500D02*
D03*
Y122500D02*
D03*
Y123500D02*
D03*
Y124500D02*
D03*
Y125500D02*
D03*
Y126500D02*
D03*
X157850Y130000D02*
D03*
Y129000D02*
D03*
Y128000D02*
D03*
Y127000D02*
D03*
Y126000D02*
D03*
Y125000D02*
D03*
Y124000D02*
D03*
Y123000D02*
D03*
Y122000D02*
D03*
X160850Y131000D02*
D03*
Y130000D02*
D03*
Y129000D02*
D03*
Y128000D02*
D03*
Y127000D02*
D03*
Y126000D02*
D03*
Y125000D02*
D03*
Y124000D02*
D03*
Y123000D02*
D03*
Y122000D02*
D03*
X166250Y124900D02*
D03*
Y125900D02*
D03*
Y126900D02*
D03*
Y127900D02*
D03*
Y128900D02*
D03*
Y129900D02*
D03*
Y130900D02*
D03*
X163250Y124900D02*
D03*
Y125900D02*
D03*
Y126900D02*
D03*
Y127900D02*
D03*
Y128900D02*
D03*
Y129900D02*
D03*
X166250Y109500D02*
D03*
Y110500D02*
D03*
Y111500D02*
D03*
Y112500D02*
D03*
Y113500D02*
D03*
Y114500D02*
D03*
Y115500D02*
D03*
Y116500D02*
D03*
X163250Y109500D02*
D03*
Y110500D02*
D03*
Y111500D02*
D03*
Y112500D02*
D03*
Y113500D02*
D03*
Y114500D02*
D03*
Y115500D02*
D03*
X169850Y109200D02*
D03*
X170850D02*
D03*
X171850D02*
D03*
X172850D02*
D03*
X173850D02*
D03*
X174850D02*
D03*
X175850D02*
D03*
X176850D02*
D03*
X169850Y112200D02*
D03*
X170850D02*
D03*
X171850D02*
D03*
X172850D02*
D03*
X173850D02*
D03*
X174850D02*
D03*
X175850D02*
D03*
X183250Y119900D02*
D03*
Y120900D02*
D03*
Y121900D02*
D03*
Y122900D02*
D03*
Y123900D02*
D03*
Y124900D02*
D03*
Y125900D02*
D03*
Y126900D02*
D03*
Y127900D02*
D03*
Y128900D02*
D03*
X180250Y119900D02*
D03*
Y120900D02*
D03*
Y121900D02*
D03*
Y122900D02*
D03*
Y123900D02*
D03*
Y124900D02*
D03*
Y125900D02*
D03*
Y126900D02*
D03*
Y127900D02*
D03*
X195050Y119400D02*
D03*
Y120400D02*
D03*
Y121400D02*
D03*
Y122400D02*
D03*
Y123400D02*
D03*
Y124400D02*
D03*
Y125400D02*
D03*
Y126400D02*
D03*
X192050Y119400D02*
D03*
Y120400D02*
D03*
Y121400D02*
D03*
Y122400D02*
D03*
Y123400D02*
D03*
Y124400D02*
D03*
Y125400D02*
D03*
X181150Y114300D02*
D03*
X182150D02*
D03*
X183150D02*
D03*
X184150D02*
D03*
X185150D02*
D03*
X186150D02*
D03*
X187150D02*
D03*
X188150D02*
D03*
X181150Y117300D02*
D03*
X182150D02*
D03*
X183150D02*
D03*
X184150D02*
D03*
X185150D02*
D03*
X186150D02*
D03*
X187150D02*
D03*
X181150Y109200D02*
D03*
X182150D02*
D03*
X183150D02*
D03*
X184150D02*
D03*
X185150D02*
D03*
X186150D02*
D03*
X187150D02*
D03*
X188150D02*
D03*
X181150Y112200D02*
D03*
X182150D02*
D03*
X183150D02*
D03*
X184150D02*
D03*
X185150D02*
D03*
X186150D02*
D03*
X187150D02*
D03*
X192450Y109200D02*
D03*
X193450D02*
D03*
X194450D02*
D03*
X195450D02*
D03*
X196450D02*
D03*
X197450D02*
D03*
X198450D02*
D03*
X199450D02*
D03*
X192450Y112200D02*
D03*
X193450D02*
D03*
X194450D02*
D03*
X195450D02*
D03*
X196450D02*
D03*
X197450D02*
D03*
X198450D02*
D03*
X189950Y119400D02*
D03*
Y120400D02*
D03*
Y121400D02*
D03*
Y122400D02*
D03*
Y123400D02*
D03*
Y124400D02*
D03*
Y125400D02*
D03*
Y126400D02*
D03*
X186950Y119400D02*
D03*
Y120400D02*
D03*
Y121400D02*
D03*
Y122400D02*
D03*
Y123400D02*
D03*
Y124400D02*
D03*
Y125400D02*
D03*
X192450Y114300D02*
D03*
X193450D02*
D03*
X194450D02*
D03*
X195450D02*
D03*
X196450D02*
D03*
X197450D02*
D03*
X198450D02*
D03*
X199450D02*
D03*
X192450Y117300D02*
D03*
X193450D02*
D03*
X194450D02*
D03*
X195450D02*
D03*
X196450D02*
D03*
X197450D02*
D03*
X198450D02*
D03*
X134450Y106200D02*
D03*
Y105200D02*
D03*
Y104200D02*
D03*
X137450Y107200D02*
D03*
Y106200D02*
D03*
Y105200D02*
D03*
Y104200D02*
D03*
D59*
X139850Y127500D02*
D03*
X157850Y131000D02*
D03*
X163250Y130900D02*
D03*
Y116500D02*
D03*
X180250Y128900D02*
D03*
X192050Y126400D02*
D03*
X186950D02*
D03*
X134450Y107200D02*
D03*
D60*
X178400Y111900D02*
D03*
X179500D02*
D03*
X140150Y129450D02*
D03*
Y130550D02*
D03*
X135222Y130553D02*
D03*
Y129453D02*
D03*
X138750Y104950D02*
D03*
Y106050D02*
D03*
X135300Y102000D02*
D03*
X136400D02*
D03*
X155450Y090850D02*
D03*
Y089750D02*
D03*
X149250Y090850D02*
D03*
Y089750D02*
D03*
X146950Y090850D02*
D03*
Y089750D02*
D03*
X140750Y090850D02*
D03*
Y089750D02*
D03*
X158200Y112000D02*
D03*
X157100D02*
D03*
X142000Y113700D02*
D03*
X143100D02*
D03*
X150500Y135700D02*
D03*
X151600D02*
D03*
X163550Y132850D02*
D03*
Y133950D02*
D03*
X158150Y132850D02*
D03*
Y133950D02*
D03*
X171200Y128800D02*
D03*
X172300D02*
D03*
X163550Y117950D02*
D03*
Y119050D02*
D03*
X192450Y127850D02*
D03*
Y128950D02*
D03*
X187250Y127850D02*
D03*
Y128950D02*
D03*
X184950Y127850D02*
D03*
Y128950D02*
D03*
X189700Y117000D02*
D03*
X190800D02*
D03*
X189700Y111900D02*
D03*
X190800D02*
D03*
X201000D02*
D03*
X202100D02*
D03*
X201000Y117000D02*
D03*
X202100D02*
D03*
X142700D02*
D03*
X143800D02*
D03*
X142700Y118800D02*
D03*
X143800D02*
D03*
D61*
X149350Y133700D02*
D03*
Y111700D02*
D03*
X140850D02*
D03*
X170050Y126900D02*
D03*
X134350Y100100D02*
D03*
D62*
X149350Y132700D02*
D03*
Y131700D02*
D03*
Y130700D02*
D03*
Y129700D02*
D03*
Y128700D02*
D03*
Y127700D02*
D03*
Y126700D02*
D03*
Y125700D02*
D03*
Y124700D02*
D03*
Y123700D02*
D03*
Y122700D02*
D03*
Y121700D02*
D03*
Y120700D02*
D03*
Y119700D02*
D03*
Y118700D02*
D03*
Y117700D02*
D03*
Y116700D02*
D03*
Y115700D02*
D03*
Y114700D02*
D03*
X155350Y133700D02*
D03*
Y132700D02*
D03*
Y131700D02*
D03*
Y130700D02*
D03*
Y129700D02*
D03*
Y128700D02*
D03*
Y127700D02*
D03*
Y126700D02*
D03*
Y125700D02*
D03*
Y124700D02*
D03*
Y123700D02*
D03*
Y122700D02*
D03*
Y121700D02*
D03*
Y120700D02*
D03*
Y119700D02*
D03*
Y118700D02*
D03*
Y117700D02*
D03*
Y116700D02*
D03*
Y115700D02*
D03*
Y114700D02*
D03*
X149350Y110700D02*
D03*
Y109700D02*
D03*
Y108700D02*
D03*
Y107700D02*
D03*
Y106700D02*
D03*
Y105700D02*
D03*
Y104700D02*
D03*
Y103700D02*
D03*
Y102700D02*
D03*
Y101700D02*
D03*
Y100700D02*
D03*
Y099700D02*
D03*
Y098700D02*
D03*
Y097700D02*
D03*
Y096700D02*
D03*
Y095700D02*
D03*
Y094700D02*
D03*
Y093700D02*
D03*
Y092700D02*
D03*
X155350Y111700D02*
D03*
Y110700D02*
D03*
Y109700D02*
D03*
Y108700D02*
D03*
Y107700D02*
D03*
Y106700D02*
D03*
Y105700D02*
D03*
Y104700D02*
D03*
Y103700D02*
D03*
Y102700D02*
D03*
Y101700D02*
D03*
Y100700D02*
D03*
Y099700D02*
D03*
Y098700D02*
D03*
Y097700D02*
D03*
Y096700D02*
D03*
Y095700D02*
D03*
Y094700D02*
D03*
Y093700D02*
D03*
Y092700D02*
D03*
X146850D02*
D03*
Y093700D02*
D03*
Y094700D02*
D03*
Y095700D02*
D03*
Y096700D02*
D03*
Y097700D02*
D03*
Y098700D02*
D03*
Y099700D02*
D03*
Y100700D02*
D03*
Y101700D02*
D03*
Y102700D02*
D03*
Y103700D02*
D03*
Y104700D02*
D03*
Y105700D02*
D03*
Y106700D02*
D03*
Y107700D02*
D03*
Y108700D02*
D03*
Y109700D02*
D03*
Y110700D02*
D03*
Y111700D02*
D03*
X140850Y092700D02*
D03*
Y093700D02*
D03*
Y094700D02*
D03*
Y095700D02*
D03*
Y096700D02*
D03*
Y097700D02*
D03*
Y098700D02*
D03*
Y099700D02*
D03*
Y100700D02*
D03*
Y101700D02*
D03*
Y102700D02*
D03*
Y103700D02*
D03*
Y104700D02*
D03*
Y105700D02*
D03*
Y106700D02*
D03*
Y107700D02*
D03*
Y108700D02*
D03*
Y109700D02*
D03*
Y110700D02*
D03*
X176050Y113900D02*
D03*
Y114900D02*
D03*
Y115900D02*
D03*
Y116900D02*
D03*
Y117900D02*
D03*
Y118900D02*
D03*
Y119900D02*
D03*
Y120900D02*
D03*
Y121900D02*
D03*
Y122900D02*
D03*
Y123900D02*
D03*
Y124900D02*
D03*
Y125900D02*
D03*
Y126900D02*
D03*
X170050Y113900D02*
D03*
Y114900D02*
D03*
Y115900D02*
D03*
Y116900D02*
D03*
Y117900D02*
D03*
Y118900D02*
D03*
Y119900D02*
D03*
Y120900D02*
D03*
Y121900D02*
D03*
Y122900D02*
D03*
Y123900D02*
D03*
Y124900D02*
D03*
Y125900D02*
D03*
X137350Y097100D02*
D03*
Y098100D02*
D03*
Y099100D02*
D03*
Y100100D02*
D03*
X134350Y097100D02*
D03*
Y098100D02*
D03*
Y099100D02*
D03*
D63*
X144450Y121900D02*
D03*
X147450D02*
D03*
X144450Y127600D02*
D03*
X147450D02*
D03*
X205550Y117000D02*
D03*
X208550D02*
D03*
X211750D02*
D03*
X214750D02*
D03*
X217950D02*
D03*
X220950D02*
D03*
X224150D02*
D03*
X227150D02*
D03*
X230350D02*
D03*
X233350D02*
D03*
X132950Y125000D02*
D03*
Y128000D02*
D03*
X131750Y130000D02*
D03*
X132750D02*
D03*
X131250Y097500D02*
D03*
Y100500D02*
D03*
X139050Y097100D02*
D03*
Y100100D02*
D03*
X147230Y123710D02*
D03*
X144670D02*
D03*
X147230Y125490D02*
D03*
X144670D02*
D03*
X229450Y109000D02*
D03*
X232450D02*
D03*
X223250D02*
D03*
X226250D02*
D03*
X217050D02*
D03*
X220050D02*
D03*
X210850D02*
D03*
X213850D02*
D03*
X204650D02*
D03*
X207650D02*
D03*
D64*
X176850Y112200D02*
D03*
X188150Y117300D02*
D03*
Y112200D02*
D03*
X199450D02*
D03*
Y117300D02*
D03*
D65*
X132550Y106881D02*
D03*
Y106091D02*
D03*
Y105304D02*
D03*
Y104516D02*
D03*
D66*
X137322Y089967D02*
D03*
X133389D02*
D03*
D67*
X137322Y094892D02*
D03*
X133385Y094888D02*
D03*
X132385Y093896D02*
D03*
X138295D02*
D03*
X135350Y093900D02*
D03*
D68*
X203689Y113884D02*
D03*
X208611D02*
D03*
X203689Y111916D02*
D03*
X208611D02*
D03*
X209889Y113884D02*
D03*
X214811D02*
D03*
X209889Y111916D02*
D03*
X214811D02*
D03*
X216089Y113884D02*
D03*
X221011D02*
D03*
X216089Y111916D02*
D03*
X221011D02*
D03*
X222289Y113884D02*
D03*
X227211D02*
D03*
X222289Y111916D02*
D03*
X227211D02*
D03*
X228489Y113884D02*
D03*
X233411D02*
D03*
X228489Y111916D02*
D03*
X233411D02*
D03*
D69*
X206150Y114672D02*
D03*
Y111128D02*
D03*
X212350Y114672D02*
D03*
Y111128D02*
D03*
X218550Y114672D02*
D03*
Y111128D02*
D03*
X224750Y114672D02*
D03*
Y111128D02*
D03*
X230950Y114672D02*
D03*
Y111128D02*
D03*
D70*
X191450Y112400D02*
D03*
X186950Y113600D02*
D03*
X158450Y129000D02*
D03*
X177550Y123400D02*
D03*
X147850Y130000D02*
D03*
X134150Y124600D02*
D03*
X184150Y113400D02*
D03*
X167450Y109500D02*
D03*
X168550Y113900D02*
D03*
X140150Y100200D02*
D03*
X152350Y104300D02*
D03*
X159050Y108200D02*
D03*
X157650Y115400D02*
D03*
X173350Y112800D02*
D03*
X151950Y116700D02*
D03*
X152250Y117000D02*
D03*
X152550Y117300D02*
D03*
X152850Y117600D02*
D03*
X153150Y117900D02*
D03*
X221674Y105500D02*
D03*
X169650Y107600D02*
D03*
X183450Y105700D02*
D03*
X185450Y107900D02*
D03*
X175950Y108200D02*
D03*
X161650Y105400D02*
D03*
Y105000D02*
D03*
Y104600D02*
D03*
X199150Y123400D02*
D03*
X203950Y124400D02*
D03*
X208750Y125400D02*
D03*
X167650Y116400D02*
D03*
X145650Y123100D02*
D03*
X133250Y127000D02*
D03*
X134050D02*
D03*
X131650Y126400D02*
D03*
X186150Y109800D02*
D03*
X185850Y110100D02*
D03*
X185550Y110400D02*
D03*
X164850Y123800D02*
D03*
X164150Y124100D02*
D03*
X162750Y124700D02*
D03*
X163450Y124400D02*
D03*
X148450Y099500D02*
D03*
X151550Y114100D02*
D03*
X151250Y113800D02*
D03*
X150950Y113500D02*
D03*
Y112600D02*
D03*
Y108200D02*
D03*
X139850Y103200D02*
D03*
Y103600D02*
D03*
X176250Y107900D02*
D03*
X175650Y108500D02*
D03*
X150350Y099200D02*
D03*
X146250Y123100D02*
D03*
X180750Y106400D02*
D03*
X181150D02*
D03*
X159050Y109100D02*
D03*
Y109900D02*
D03*
Y109500D02*
D03*
X180350Y106400D02*
D03*
X150350Y118700D02*
D03*
X151050Y115800D02*
D03*
X174500Y108500D02*
D03*
X151350Y116100D02*
D03*
X151650Y116400D02*
D03*
X164350Y121500D02*
D03*
X164050Y121800D02*
D03*
X164650Y121200D02*
D03*
X164950Y121800D02*
D03*
X165550Y121200D02*
D03*
X165250Y121500D02*
D03*
X156050Y118200D02*
D03*
X160050Y123300D02*
D03*
X181950Y118700D02*
D03*
X168550Y114400D02*
D03*
X168250Y114900D02*
D03*
X167950Y115400D02*
D03*
X157150Y117000D02*
D03*
Y116600D02*
D03*
X156750D02*
D03*
D71*
X131650Y125200D02*
D03*
X130650Y127375D02*
D03*
Y126300D02*
D03*
Y125300D02*
D03*
Y124220D02*
D03*
M02*
