M48
;Layer_Color=9474304
;FILE_FORMAT=2:4
INCH
;TYPE=PLATED
T1F00S00C0.0150
T2F00S00C0.0315
T3F00S00C0.0320
T4F00S00C0.0350
T5F00S00C0.0354
T6F00S00C0.0394
T7F00S00C0.0400
T8F00S00C0.0433
T9F00S00C0.0472
T10F00S00C0.0512
T11F00S00C0.0551
T12F00S00C0.0630
T13F00S00C0.0866
%
T01
X140150Y100200
X139850Y103200
Y103600
X148450Y099500
X150350Y099200
X152350Y104300
X150950Y108200
X159050
Y109100
X161650Y105400
Y105000
Y104600
X169650Y107600
X174500Y108500
X175650
X175950Y108200
X176250Y107900
X180350Y106400
X180750
X181150
X183450Y105700
X185450Y107900
X221674Y105500
X203950Y124400
X199150Y123400
X191450Y112400
X186950Y113600
X184150Y113400
X185550Y110400
X185850Y110100
X186150Y109800
X181950Y118700
X177550Y123400
X173350Y112800
X168550Y113900
Y114400
X168250Y114900
X167950Y115400
X167650Y116400
X165550Y121200
X165250Y121500
X164950Y121800
X164350Y121500
X164050Y121800
X164650Y121200
X164850Y123800
X164150Y124100
X163450Y124400
X162750Y124700
X160050Y123300
X157150Y117000
Y116600
X156750
X157650Y115400
X159050Y109900
Y109500
X167450
X150950Y112600
Y113500
X151250Y113800
X151550Y114100
X151050Y115800
X151350Y116100
X151650Y116400
X151950Y116700
X152250Y117000
X152550Y117300
X152850Y117600
X153150Y117900
X156050Y118200
X150350Y118700
X146250Y123100
X145650
X134150Y124600
X130650Y124220
Y125300
Y126300
Y127375
X131650Y126400
Y125200
X133250Y127000
X134050
X147850Y130000
X158450Y129000
X208750Y125400
T02
X132550Y104516
Y105304
Y106091
Y106881
X224750Y110243
Y115557
X230950
Y110243
X218550
Y115557
X212350
Y110243
X206150
Y115557
T03
X131750Y130000
X132750
T04
X138550Y101700
Y102700
X138150Y108600
X139150
X189750Y109900
X190750
Y115000
X189750
X201050
X202050
Y109900
X201050
X179450
X178450
X158150Y110000
X157150
X165550Y118000
Y119000
X145750Y113700
X144750
X137750Y118900
X136750
X137222Y129503
Y130503
X142150Y130500
Y129500
X145450Y130000
X146450
X153250Y135700
X154250
X160150Y133900
Y132900
X165550
Y133900
X173950Y128800
X174950
X184450Y125900
X185450
X189250Y127900
Y128900
X194350
Y127900
T05
X131250Y097500
Y100500
X134450Y104200
Y105200
Y106200
Y107200
X137450
Y106200
Y105200
Y104200
X139050Y100100
Y097100
X169850Y109200
X170850
X171850
X172850
X173850
X174850
X175850
X176850
X181150
X182150
X183150
X184150
X185150
X186150
X187150
X188150
X192450
X193450
X194450
X195450
X196450
X197450
X198450
X199450
X204650Y109000
X207650
X210850
X213850
X217050
X220050
X223250
X226250
X229450
X232450
X233350Y117000
X230350
X227150
X224150
X220950
X217950
X214750
X211750
X208550
X205550
X199450Y117300
X198450
X197450
X196450
X195450
X194450
X193450
X192450
X192050Y119400
Y120400
Y121400
Y122400
Y123400
Y124400
X189950
Y123400
Y122400
Y121400
Y120400
Y119400
X188150Y117300
Y114300
Y112200
X192450
X193450
X194450
X195450
X196450
X197450
X198450
X199450
Y114300
X198450
X197450
X196450
X195450
X194450
X193450
X192450
X195050Y119400
Y120400
Y121400
Y122400
Y123400
Y124400
X186950
Y123400
Y122400
Y121400
Y120400
Y119400
X187150Y117300
X186150
X185150
X184150
X183150
X182150
X181150
Y114300
X182150
X183150
X184150
X185150
X186150
X187150
Y112200
X186150
X185150
X184150
X183150
X182150
X181150
X176850
X175850
X174850
X173850
X172850
X180250Y119900
Y120900
Y121900
Y122900
Y123900
Y124900
X183250
Y123900
Y122900
Y121900
Y120900
Y119900
X171850Y112200
X170850
X169850
X166250Y112500
Y111500
Y110500
Y109500
X163250
Y110500
Y111500
Y112500
Y113500
Y114500
Y115500
Y116500
X166250
Y115500
Y114500
Y113500
Y124900
X163250
X160850Y124000
Y123000
Y122000
X157850
Y123000
Y124000
X147450Y121900
X144450
X142850Y121500
Y122500
Y123500
Y124500
X139850
Y123500
Y122500
Y121500
Y125500
Y126500
Y127500
X132950Y128000
Y125000
X142850Y125500
Y126500
Y127500
X144450Y127600
X147450
X157850Y128000
Y129000
Y130000
Y131000
X160850
Y130000
Y129000
Y128000
Y127000
Y126000
Y125000
X157850
Y126000
Y127000
X163250Y126900
Y125900
Y127900
Y128900
Y129900
Y130900
X166250
Y129900
Y128900
Y127900
Y126900
Y125900
X180250
Y126900
Y127900
Y128900
X183250
Y127900
Y126900
Y125900
X186950Y125400
Y126400
X189950
Y125400
X192050
Y126400
X195050
Y125400
T06
X153311Y090300
X151389
X144811
X142889
X146250Y116939
Y118861
T07
X155450Y089750
Y090850
X155350Y092700
Y093700
X149350
Y092700
X149250Y090850
Y089750
X146950
Y090850
X146850Y092700
Y093700
X140850
Y092700
X140750Y090850
Y089750
X137350Y097100
Y098100
Y099100
Y100100
X136400Y102000
X135300
X134350Y100100
Y099100
Y098100
Y097100
X132750Y097000
Y101000
X138750Y104950
Y106050
X140850Y105700
Y104700
Y103700
Y102700
Y101700
Y100700
Y099700
Y098700
Y097700
Y096700
Y095700
Y094700
X146850
Y095700
Y096700
Y097700
Y098700
Y099700
Y100700
Y101700
Y102700
Y103700
Y104700
Y105700
Y106700
Y107700
Y108700
X149350
Y107700
Y106700
Y105700
Y104700
Y103700
Y102700
Y101700
Y100700
Y099700
Y098700
Y097700
Y096700
Y095700
Y094700
X155350
Y095700
Y096700
Y097700
Y098700
Y099700
Y100700
Y101700
Y102700
Y103700
Y104700
Y105700
Y106700
Y107700
Y108700
X140850
Y107700
Y106700
X189700Y111900
X190800
Y117000
X189700
X201000
X202100
Y111900
X201000
X179500
X178400
X176050Y113900
Y114900
Y115900
Y116900
Y117900
Y118900
Y119900
Y120900
Y121900
Y122900
Y123900
Y124900
X170050
Y123900
Y122900
Y121900
Y120900
Y119900
Y118900
Y117900
Y116900
Y115900
Y114900
Y113900
X163550Y117950
Y119050
X158200Y112000
X157100
X155350Y111700
Y110700
Y109700
Y114700
Y115700
Y116700
Y117700
Y118700
Y119700
Y120700
Y121700
Y122700
Y123700
Y124700
X149350
Y123700
Y122700
Y121700
Y120700
Y119700
Y118700
Y117700
Y116700
Y115700
Y114700
Y111700
Y110700
Y109700
X146850
Y110700
Y111700
X143100Y113700
X142000
X140850Y111700
Y110700
Y109700
X142700Y117000
X143800
Y118800
X142700
X144670Y123710
X147230
X140150Y129450
Y130550
X135222Y130553
Y129453
X144670Y125490
X147230
X149350Y125700
Y126700
Y127700
Y128700
Y129700
Y130700
Y131700
Y132700
Y133700
X150500Y135700
X151600
X155350Y133700
Y132700
Y131700
Y130700
Y129700
Y128700
Y127700
Y126700
Y125700
X158150Y132850
Y133950
X163550
Y132850
X171200Y128800
X170050Y126900
Y125900
X172300Y128800
X176050Y126900
Y125900
X184950Y127850
Y128950
X187250
Y127850
X192450
Y128950
T08
X133766Y110044
X134750
X135734
X169766Y131044
X170750
X171734
X176766
X177750
X178734
X183766
X184750
X185734
X190766
X191750
X192734
T09
X232837Y089937
X231263
X228037
X226463
X223237
X221663
X218437
X216863
X213637
X212063
X208837
X207263
X204037
X202463
X199237
X197663
X194437
X192863
X189637
X188063
X184837
X183263
X180037
X178463
X175237
X173663
X170437
X168863
X165637
X164063
X160837
X159263
Y107063
X160837
X164063
X165637
X168863
X170437
X173663
X175237
X178463
X180037
X183263
X184837
X188063
X189637
X192863
X194437
X197663
X199237
X202463
X204037
X207263
X208837
X212063
X213637
X216863
X218437
X221663
X223237
X226463
X228037
X231263
X232837
X233411Y111916
Y113884
X228489
X227211
Y111916
X228489
X222289
X221011
Y113884
X222289
X221663Y119437
X223237
X226463
X228037
X231263
X232837
X218437
X216863
X213637
X212063
X208837
X207263
X204037
X203689Y113884
Y111916
X208611
X209889
Y113884
X208611
X214811
X216089
Y111916
X214811
X202463Y119437
X199237
X197663
X133719Y119900
X131750Y117931
X130766
Y121868
X131750
X197663Y136563
X199237
X202463
X204037
X207263
X208837
X212063
X213637
X216863
X218437
X221663
X223237
X226463
X228037
X231263
X232837
T10
X133719Y117931
Y118916
Y120884
Y121868
X131750Y119900
T11
X133389Y089967
X137322
X138295Y093896
X137322Y094892
X135350Y093900
X133385Y094888
X132385Y093896
T12
X230950Y111128
Y114672
X224750
Y111128
X218550
Y114672
X212350
Y111128
X206150
Y114672
T13
X132663Y112800
X136837
X168663Y133800
X172837
X175663
X179837
X182663
X186837
X189663
X193837
M30
